<?xml version="1.0" encoding="utf-8"?>
<!-- Generator: Adobe Illustrator 16.0.3, SVG Export Plug-In . SVG Version: 6.00 Build 0)  -->
<!DOCTYPE svg PUBLIC "-//W3C//DTD SVG 1.1//EN" "http://www.w3.org/Graphics/SVG/1.1/DTD/svg11.dtd">
<svg version="1.1" id="Capa_1" xmlns="http://www.w3.org/2000/svg" xmlns:xlink="http://www.w3.org/1999/xlink" x="0px" y="0px"
	 width="138.654px" height="105.329px" viewBox="0 0 138.654 105.329" enable-background="new 0 0 138.654 105.329"
	 xml:space="preserve">
<path fill-rule="evenodd" clip-rule="evenodd" fill="#3B230F" d="M16.163,54.171c-1.561-0.415-2.411-1.594-2.23-3.038
	c0.379-3.032-1.287-3.111-3.585-3.167c-4.23-0.103-7.353-2.234-9.159-6.079c-1.792-3.814-1.639-7.662,1.017-10.94
	c1.357-1.675,1.566-3.16,1.29-5.102c-0.36-2.531,0.244-4.97,1.295-7.289C9.582,7.986,26.347,2.01,36.645,7.337
	c1.526,0.79,2.753,0.683,4.235,0.355c9.589-2.119,16.264,1.315,20.054,10.426c0.58,1.396,1.434,2.169,2.653,2.907
	c1.672,1.012,3.585,1.967,3.562,4.406c1.271,1.915,1.051,3.987,0.655,6.074c-0.635,1.754-2.262,2.091-3.764,2.667
	c-2.127,0.817-0.044,1.358,0.18,2.027c-0.804,2.483-3.83,1.64-5.099,3.43c-1.065,0.678-1.935,1.979-3.491,1.128
	c-0.894-1.322-1.027-2.775-0.737-4.297c1.044-0.866,2.281-1.531,2.959-2.792c0.74-0.7,1.71-0.984,2.584-1.445
	c2.004-1.057,3.403-2.613,3.252-4.986c-0.154-2.415-1.855-3.646-3.969-4.419c-1.049-0.383-2.148-0.605-3.188-1.021
	c-0.44-0.241-1.116-0.717-0.931-1.021c2.449-4.027-0.944-5.349-3.249-7.176c-0.859-1.067-1.966-1.801-3.201-2.361
	c-1.018-0.465-2.106-0.73-3.189-0.899c-3.373-0.528-4.513,0.547-4.337,3.967c0.045,0.868-0.005,1.722-0.31,2.55
	c-0.632,1.219-1.297,2.696-2.936,2.221c-1.354-0.393-0.759-1.89-0.86-2.928c-0.34-3.481-2.219-5.373-5.974-5.87
	c-3.903-0.517-7.605,0.416-11.251,1.661c-3.657,0.888-6.512,3.018-8.783,5.919c-2.834,3.623-2.74,5.467,0.215,9.287
	c-0.732,1.111-1.994,1.479-3.022,2.174c-5.184,3.768-5.854,8.609-1.813,12.464c2.331,2.223,5,1.976,7.667,1.179
	c3.021-0.902,5.378-3.047,7.94-4.783c1.359-0.921,0.912-2.125,0.363-3.309c-0.859-1.849-1.518-3.708-0.07-5.591
	c1.529-0.194,2.106,1.032,2.892,1.943c3.408,3.954,8.627,4.457,12.864,1.22c1.664-1.272,2.952-3.07,4.895-3.919
	c1.592-0.695,3.523-1.383,3.476,1.667c-0.443,2.329,1.324,1.879,2.568,1.991c2.288,0.205,4.76-0.356,6.576,1.692
	c0.505,1.211-0.379,1.806-1.095,2.477c-0.679,0.574-1.482,0.631-2.315,0.573c-8.28-1.331-16.065,0.592-23.677,3.614
	c-2.911,0.95-5.814,1.919-7.913,4.348c-1.012,2.216,2.098,2.725,1.903,4.595c-0.426,1.739-1.636,3.01-2.523,4.481
	C18.879,56.552,17.707,56.424,16.163,54.171z"/>
<path fill-rule="evenodd" clip-rule="evenodd" fill="#4C1D09" d="M14.468,102.708c2.085-4.979,4.188-9.951,6.244-14.942
	c0.519-1.259,1.567-1.449,2.691-1.609c2.323-0.333,4.646-0.673,6.968-1.01c3.171,0.724,6.419-1.151,9.568,0.283
	c0.031,2.531-2.161,2.226-3.552,2.473c-2.623,0.465-5.321,0.508-7.882,1.348c-3.796,0.707-7.936,5.572-8.035,9.388
	c-0.041,1.562,0.964,1.529,1.999,1.419c3.102-0.329,6.186-0.771,9.185-1.701c6.74-1.302,13.516-2.348,20.316-3.246
	c9.394-1.515,18.817-2.86,28.128-4.844c4.486-0.956,9.07-1.282,13.553-2.223c2.339-0.427,4.752-0.505,6.978-1.478
	c0.376-0.13,0.765-0.213,1.158-0.27c2.934-0.034,5.834-0.311,8.635-1.27c6.088-1.051,11.957-2.733,17.279-6.006
	c0.843-0.162,1.644-0.089,2.37,0.415c0.338,0.354,0.351,0.722,0.042,1.1c-7.111,6.348-16.035,7.875-24.966,9.395
	c-26.776,4.561-53.551,9.132-80.329,13.69c-0.608,0.104-1.235,0.097-1.854,0.142c-2.021,0.585-4.161,0.115-6.219,0.91
	C15.606,105.111,13.737,105.082,14.468,102.708z"/>
<path fill-rule="evenodd" clip-rule="evenodd" fill="#551E0D" d="M16.163,54.171c3.459,2.451,3.403-1.811,5.01-2.814
	c0.479-0.298,0.753-1.63,1.65-2.121c0.05-0.162,0.1-0.325,0.149-0.488c1.294-0.207,2.629-0.868,3.799,0.333
	c0.198,0.367-0.377,0.595-0.175,0.965c2.433-1.924,5.382-2.136,8.293-2.507c0.378,0.065,0.727,0.196,1.063,0.376
	c1.534,1.209,2.342,2.646,1.456,4.612c-0.246,0.301-0.568,0.471-0.955,0.51c-2.032-1.785-3.195-1.189-4.53,1.094
	c-3.063,5.239-4.348,10.839-4.366,16.822c-0.106,0.837-0.56,1.416-1.308,1.782c-1.819,0.458-3.596,0.756-4.731-1.286
	c0.003-4.421,2.724-7.909,4.149-11.842c0.719-1.982,1.748-3.86,2.593-5.804c0.413-0.947,0.255-1.457-0.915-0.921
	c-4.28,0.755-6.576,3.359-7.971,7.432c-1.775,5.185-4.626,9.953-6.493,15.134c-0.473,1.313-0.844,3.035-2.929,2.799
	c-0.97-1.252-0.602-2.494-0.042-3.783c0.524-1.207,1.334-2.362,0.967-3.803c1.731-4.25,3.458-8.502,5.198-12.749
	C16.585,56.67,17.479,55.451,16.163,54.171z"/>
<path fill-rule="evenodd" clip-rule="evenodd" fill="#7F3704" d="M105.998,6.753c0.492-0.702,0.984-1.404,1.477-2.105
	c0.748-0.317,0.257-2.025,1.723-1.536c0.522,4.178,1.859,7.935,3.974,11.715c2.551,4.56,5.326,8.611,9.555,11.697
	c1.86,1.358,2.476,3.697,3.673,5.58c0.783,1.231,1.324,2.794,3.264,2.563c1.104-0.116,2.201-0.154,3.277,0.186
	c1.303,0.49,2.402,1.229,3.047,2.517c0.467,1.347,0.368,2.321-1.436,2.158c-2.29-1.666-4.458-1.743-6.762,0.152
	c-2.239,1.842-5.432,0.596-7.828,2.122c-1.361,0.402-2.386,1.379-3.565,2.096c-0.808-0.026-1.369-0.414-1.696-1.148
	c0.36-3.717,3.391-4.31,6.139-5.173c1.241-0.39,2.711,0.254,3.817-0.788c0.222-1.807-1.331-2.82-1.907-4.263
	c-1.637-3.877-5.65-5.581-8.028-8.776c-0.568-0.856-1.171-1.688-1.821-2.49c-1.931-4.744-5.513-8.613-7.175-13.502
	C105.684,7.386,105.782,7.053,105.998,6.753z"/>
<path fill-rule="evenodd" clip-rule="evenodd" fill="#462712" d="M130.111,80.536c-0.014-0.291-0.027-0.582-0.041-0.873
	c-1.038-1.372,0.341-2.016,0.869-2.92c0.204-0.254,0.429-0.488,0.661-0.716c1.388-1.275,1.931-2.973,2.356-4.731
	c0.483-2.358,1.079-4.693,1.065-7.124c0.331-2.889-1.304-4.009-3.854-4.423c-5.345-0.869-6.346-2.797-4.093-7.827
	c0.306-0.683,0.543-1.388,0.844-2.069c0.641-1.453,0.093-2.077-1.416-2.122c-1.493-0.045-2.992,0.055-4.477-0.119
	c-1.1-0.128-2.499-0.206-2.598-1.598c-0.106-1.484,1.313-1.726,2.397-1.747c3.338-0.065,6.703-0.575,10.007,0.383
	c0.422,0.231,0.571,0.58,0.449,1.044c-1.342,3.384-2.684,6.769-4.008,10.105c0.262,0.274,0.428,0.586,0.568,0.575
	c7.427-0.589,11.086,5.523,9.294,12.928C136.986,74.042,133.866,77.561,130.111,80.536z"/>
<path fill-rule="evenodd" clip-rule="evenodd" fill="#715117" d="M105.998,6.753c0.058,0.385,0.115,0.769,0.172,1.154
	c-0.341,1.585-1.726,1.758-2.931,2.176c-4.042,1.188-8.175,2.096-12.045,3.825c-0.298,0.17-0.609,0.316-0.92,0.46
	c-3.577,1.499-6.938,3.375-9.995,5.776c-0.836,0.564-1.702,1.082-2.521,1.674c-3.053,1.853-5.313,5.008-9.147,5.579
	c-0.667-0.393-1.13-0.879-0.789-1.73c3.879-2.651,7.873-5.151,11.614-7.983C87.352,11.692,96.56,8.975,105.998,6.753z"/>
<path fill-rule="evenodd" clip-rule="evenodd" fill="#462009" d="M10.878,70.662c1.283,1.267,0.56,2.53-0.071,3.735
	c-0.665,1.268-0.858,2.575-0.65,3.967c0.308,1.45-0.602,2.427-1.334,3.472c-1.23,1.86-0.53,2.776,1.499,2.793
	c2.299,0.02,4.618,0.371,6.882-0.54c1.336-0.537,2.502-0.421,1.886,1.584c-4.825,2.439-10.208,1.878-16.112,3.548
	C5.769,82.418,7.65,76.273,10.878,70.662z"/>
<path fill-rule="evenodd" clip-rule="evenodd" fill="#76492B" d="M111.332,0.234c6.658-0.657,6.46-0.253,9.884,5.433
	c3.283,5.454,6.973,10.756,11.356,15.469c1.69,1.817,3.585,3.475,4.137,6.06c-0.257,0.597-0.005,1.501-0.998,1.656
	c-2.856-3.228-5.929-6.391-8.227-9.95c-3.157-4.891-7.709-8.878-9.62-14.584c-0.28-0.836-1.016-1.398-1.759-1.875
	c-1.235-0.766-2.722-0.467-4.023-0.949C111.573,1.229,111.17,0.899,111.332,0.234z"/>
<path fill-rule="evenodd" clip-rule="evenodd" fill="#6A3C20" d="M136.004,28.774c0.235-0.526,0.471-1.052,0.706-1.578
	c4.31,7.552,0.845,13.241-4.43,18.497c-0.08-0.171-0.132-0.351-0.153-0.539c-0.397-0.529-0.856-1.03-0.819-1.762
	c0.904-1.529,1.979-2.93,3.194-4.228c1.451,0.062,1.093-0.824,0.859-1.644C136.551,34.677,135.067,31.637,136.004,28.774z"/>
<path fill-rule="evenodd" clip-rule="evenodd" fill="#551E0D" d="M19.089,85.674c-0.184-0.545-0.321-1.555-1.072-1.02
	c-2.729,1.943-5.756,0.655-8.619,1c-0.985,0.119-2.132,0.029-2.233-1.327c-0.095-1.269-0.627-2.87,1.486-3.147
	c1.372,3.54,3.821,2.887,6.413,1.64c0.895-0.729,1.497-1.69,2.098-2.653c0.77-0.821,1.123-2.161,2.599-2.109
	c-0.215,1.18-0.556,2.352-0.62,3.54c-0.147,2.742,1.137-0.043,1.613,0.382C20.54,83.364,20.167,84.678,19.089,85.674z"/>
<path fill-rule="evenodd" clip-rule="evenodd" fill="#524539" d="M14.468,102.708c0.289,1.632,1.35,1.888,2.71,1.449
	c1.903-0.615,3.831-0.66,5.786-0.395c-2.409,0.485-4.81,1.008-7.227,1.444C12.652,105.762,13.31,104.345,14.468,102.708z"/>
<path fill-rule="evenodd" clip-rule="evenodd" fill="#6F4F33" d="M111.332,0.234c0.348,0.282,0.696,0.564,1.043,0.846
	c-0.266,1.278-1.367,1.722-2.313,2.325c-0.32,0.107-0.634,0.094-0.939-0.056c-0.549,0.433-1.099,0.865-1.648,1.298
	C107.649,2.205,109.36,1.105,111.332,0.234z"/>
<path fill-rule="evenodd" clip-rule="evenodd" fill="#462009" d="M67.821,25.667c0.228,0.442,0.456,0.885,0.685,1.327
	c0.216,1.55,0.527,3.094,0.306,4.674c-0.282,0.502-0.71,0.799-1.273,0.909c-0.169-0.066-0.338-0.132-0.507-0.199
	c0.039-2.316,0.079-4.631,0.118-6.948C67.39,25.462,67.614,25.54,67.821,25.667z"/>
<path fill-rule="evenodd" clip-rule="evenodd" fill="#FCFCFC" d="M46.035,30.121c0.558-2.739-1.492-1.425-2.113-1.091
	c-1.158,0.622-2.063,1.717-3.061,2.629c-6.67,6.105-12.063,5.556-17.079-1.721c-0.174-0.251-0.597-0.331-0.904-0.49
	c-0.736,1.356-0.988,3.04-0.537,4.266c1.374,3.73-0.934,5.279-3.484,6.796c-1.067,0.635-2.249,1.069-3.395,1.552
	c-4.273,1.804-7.355,1.088-9.535-2.18c-2.41-3.612-1.912-7.144,1.466-10.337c0.361-0.341,0.788-0.608,1.109-0.995
	c0.881-0.685,1.769-1.356,2.939-1.457c0.461-0.811,1.872-0.925,1.054-2.627c-1.793-3.732-0.594-7.62,2.672-10.051
	c1.48-1.102,3.128-1.962,4.617-3.058c3.754-1.924,7.76-2.597,11.912-2.116c5.808,0.674,7.843,3.786,6.332,9.507
	c1.978,0.533,1.853-1.491,2.747-2.236c0.481-0.383,0.625-0.94,0.77-1.5c0.778-3.201,3.165-3.91,5.959-3.582
	c1.807,0.213,3.667,0.509,5.291,1.497c1.007,0.668,2.248,1.148,2.97,2.046c1.29,1.604,4.406,3.385,0.239,5.319
	c0.193,0.271,0.386,0.543,0.579,0.814c0.974,0.796,2.277,1.038,3.232,1.825c2.04,1.681,3.406,3.717,2.38,6.494
	c-0.953,2.581-3.9,4.299-6.611,3.64c-1.735-0.422-3.428-0.195-5.103-0.384C48.799,32.493,46.148,33.285,46.035,30.121z"/>
<path fill-rule="evenodd" clip-rule="evenodd" fill="#F8F6F3" d="M44.649,42.999c-3.482,0.741-6.964,1.482-10.446,2.223
	c-1.45,0.473-2.873,0.7-4.141-0.456c-0.592-0.611-1.351-1.024-1.979-1.594c-0.34-1.074-0.164-2.147,0.02-3.221
	c7.884-3.576,16.017-5.505,24.709-3.736c1.434,2.624,1.071,3.876-1.426,3.998c-1.886,0.091-3.636,0.734-5.473,0.871
	C45.069,41.439,45.024,42.329,44.649,42.999z"/>
<path fill-rule="evenodd" clip-rule="evenodd" fill="#D2CBC3" d="M8.503,28.55c-3.851,5.297-4.086,7.488-1.579,11.21
	c1.28,1.9,3.03,2.742,5.074,2.35c3.424-0.655,6.552-2.127,9.248-4.434c0.948-0.812,0.797-1.726,0.529-2.707
	c-0.556-2.029-0.115-3.852,1.105-5.522c-0.063,1.617-0.372,3.329,0.686,4.717c2.197,2.882,0.827,4.418-1.842,5.771
	c-1.66,0.841-3.118,2.07-4.72,3.036c-4.958,2.99-10.185,1.93-12.732-2.503C2.245,36.946,3.338,30.734,8.503,28.55z"/>
<path fill-rule="evenodd" clip-rule="evenodd" fill="#D2CCC4" d="M46.035,30.121c0.308,0.38,0.538,0.926,0.936,1.115
	c3.575,1.695,7.486,1.21,11.114,0.854c3.635-0.357,4.687-4.646,2.235-7.509c-1.1-1.284-2.483-2.324-3.738-3.474
	c1.588-0.358,2.886,0.522,4.202,1.106c2.424,1.076,4.156,3,3.988,5.688c-0.171,2.73-1.689,4.804-4.671,5.405
	c-0.705,0.142-1.352,0.568-2.026,0.862c-0.768,0.476-1.523,0.438-2.269-0.051c-2.457-1.224-5.09-0.43-7.631-0.676
	C45.634,33.195,45.258,32.544,46.035,30.121z"/>
<path fill-rule="evenodd" clip-rule="evenodd" fill="#CCC6C1" d="M19.785,11.357c-0.686,1.553-2.003,2.432-3.407,3.243
	c-2.571,1.484-3.578,3.954-4.04,6.702c-0.139,0.828-0.224,1.745,0.391,2.487c2.139,2.581,2.142,2.578-1.288,3.304
	c-3.55-1.646-4.232-3.494-2.221-7.305C11.484,15.497,14.916,12.479,19.785,11.357z"/>
<path fill-rule="evenodd" clip-rule="evenodd" fill="#776E26" d="M58.63,42.264c-1.041-1.068-0.151-2.065,0.113-3.086
	c0.657-2.806,3.835-1.331,5.145-3.03c0.328-0.195,0.674-0.247,1.043-0.135c1.24,1.166,2.238,2.47,2.429,4.239
	c-0.321,1.27-1.269,1.769-2.443,1.992C62.824,42.553,60.727,42.077,58.63,42.264z"/>
<path fill-rule="evenodd" clip-rule="evenodd" fill="#D7CEC7" d="M52.795,12.927c-1.366-0.086-2.818,0.096-4.082-0.309
	c-3.499-1.124-5.7,0.182-7.149,3.303c-1.17-6.263-0.953-6.509,5.413-5.693c0.944,0.121,1.994-0.233,2.83,0.509
	C50.714,11.588,52.425,11.342,52.795,12.927z"/>
<path fill-rule="evenodd" clip-rule="evenodd" fill="#665142" d="M22.823,49.237c-2.081-0.951-3.733-2.163-2.978-4.854
	c1.537-0.464,2.83-1.431,4.276-2.08c1.1-0.493,2.22-1.276,3.323,0.005c0.078,0.368,0.074,0.749-0.124,1.066
	c-0.849,1.362-2.115,1.999-3.698,2.048c1.906,1.661,0.095,2.476-0.797,3.5L22.823,49.237z"/>
<path fill-rule="evenodd" clip-rule="evenodd" fill="#D4CCC6" d="M44.594,40.701c1.563-1.414,3.493-0.825,5.232-0.777
	c2.841,0.079,3.794-1.018,2.985-3.709c0.712,0.023,1.425,0.047,2.138,0.071l-0.011-0.02c1.222,1.278,0.798,2.899,0.918,4.407
	c-2.245,0.011-4.489,0.023-6.734,0.034c-0.815,0.804-1.827,0.908-2.895,0.817C45.591,41.433,45.017,41.216,44.594,40.701z"/>
<path fill-rule="evenodd" clip-rule="evenodd" fill="#CEBFB1" d="M27.088,42.812c-2.82-1.347-4.597,2.116-7.242,1.571
	c2.423-2.09,5.025-3.847,8.256-4.433c1.618,1.032,1.194,2.035-0.043,3.026c0.047,0.414-0.152,0.745-0.544,0.682
	C27.138,43.598,27.024,43.202,27.088,42.812z"/>
<path fill-rule="evenodd" clip-rule="evenodd" fill="#564940" d="M49.807,10.737c-0.853-0.065-1.707-0.121-2.559-0.196
	c-5.98-0.528-5.979-0.529-5.684,5.379c-0.263,0.197-0.526,0.395-0.789,0.591c-0.016-0.368-0.133-0.767-0.03-1.098
	c0.544-1.752-1.885-3.908,0.066-5.123c2.179-1.356,4.907-1.472,7.452-0.396C48.8,10.123,49.293,10.454,49.807,10.737z"/>
<path fill-rule="evenodd" clip-rule="evenodd" fill="#462009" d="M64.67,36.104c-0.26,0.015-0.521,0.029-0.781,0.044
	c-0.993-0.164-2.54,0.551-2.615-1.179c-0.051-1.175,1.232-1.414,2.164-1.692c1.182-0.353,2.396-0.602,3.595-0.897
	c0,0,0.173,0.156,0.173,0.156C67.775,34.73,66.506,35.619,64.67,36.104z"/>
<path fill-rule="evenodd" clip-rule="evenodd" fill="#462009" d="M55.807,34.116c0.756,0.017,1.513,0.034,2.269,0.051
	c0.131,2.459-1.767,1.882-3.137,2.098c0,0,0.011,0.02,0.011,0.02C55.235,35.563,55.521,34.839,55.807,34.116z"/>
<path fill-rule="evenodd" clip-rule="evenodd" fill="#F63822" d="M101.548,87.226l-0.288,0.064l-0.292-0.04
	c-1.212,0.39-1.333-0.542-1.593-1.308c-0.071-0.603,0.011-1.187,0.229-1.75c1.528-2.324,2.392-4.933,3.192-7.571
	c1.142-1.011,2.81-1.087,3.896-2.202c4.044-1.739,8.458-1.831,12.686-2.737c3.897-0.836,7.306-2.277,10.204-4.969
	c1.05-0.783,0.854-1.999,1.085-3.07c0.208-0.967,0.362-2.171,1.634-2.156c1.506,0.018,1.653,1.388,1.701,2.468
	c0.166,3.706,0.826,7.548-2.318,10.547c-0.458,0.437-0.559,1.102-0.774,1.685c-0.499,1.665-1.708,2.673-3.182,3.435
	c-5.109,3.643-10.834,5.558-17.056,6.081C107.741,86.869,104.399,85.578,101.548,87.226z"/>
<path fill-rule="evenodd" clip-rule="evenodd" fill="#EF3926" d="M31.107,99.266c-3.16,1.711-6.751,1.273-10.114,1.987
	c-2.042,0.433-2.372-1.032-1.747-2.539c1.183-2.854,2.527-5.643,3.86-8.431c1.047-2.191,3.125-1.547,4.911-1.669
	c1.647-0.306,3.314-0.962,4.87,0.287c0.57,0.934,0.586,1.941,0.389,2.975c-0.41,1.412-1.11,2.712-1.651,4.073
	C30.693,96.933,31.656,98.22,31.107,99.266z"/>
<path fill-rule="evenodd" clip-rule="evenodd" fill="#CD4434" d="M94.11,88.688c-9.248,1.718-18.486,3.487-27.746,5.133
	c-4.751,0.845-9.54,1.472-14.312,2.197c-1.271-2.062,0.381-2.256,1.697-2.674c0.689-0.836,3.371,0.771,2.452-2.028
	c0.005-1.643,1.094-2.132,2.46-2.329c0.571,0.055,1.02,0.325,1.361,0.778c0.64,1.377,1.824,1.833,3.24,1.89
	c1.917,0.447,3.668,0.021,5.313-0.993c2.086,0.103,3.869-0.93,5.76-1.551c1.165,0.056,2.101-0.745,3.215-0.894
	c2.125-0.618,4.275-1.038,6.508-0.853c1.317,0.173,2.635,0.299,3.967,0.277C90.085,87.819,92.309,87.038,94.11,88.688z"/>
<path fill-rule="evenodd" clip-rule="evenodd" fill="#CA4B43" d="M32.729,89.588c-1.304-1.618-3.151-0.604-4.713-0.974
	c3.778-2.152,8.401-0.72,12.18-2.869c0.21,0.034,0.413,0.012,0.61-0.067c2.602-1.397,5.621-0.438,8.289-1.465l0.021,0.003
	c2.487-1.445,5.514-1.534,8.088-1.894c3.872-0.542,7.693-1.616,11.621-1.828c1.186,0.326,2.477,0.506,2.909,1.954
	c-1.677,1.727-4.131,1.861-6.105,2.982c-1.794,0.184-3.621-0.026-5.397,0.436c-1.676-0.054-3.289,0.361-4.915,0.668
	c-2.265-0.374-3.847,1.546-5.931,1.779c-1.958-1.274-3.783-0.243-5.634,0.344c-1.677,0.253-3.428,0.15-4.967,1.056
	c-1.514,0.258-3.062-0.32-4.569,0.185C33.684,89.972,33.174,89.93,32.729,89.588z"/>
<path fill-rule="evenodd" clip-rule="evenodd" fill="#DE463A" d="M53.593,93.848c-0.803,0.519-1.924,0.812-1.541,2.171
	c-6.982,1.082-13.963,2.165-20.945,3.247c0.265-1.065-3.019-1.821-0.271-3.103c1.323,0.173,1.546-1.118,2.284-1.721
	c0.268-0.22,0.562-0.401,0.872-0.554c1.336-0.351,2.835-1.97,3.84,0.459c0.547,1.492,1.781,0.972,2.835,0.955
	c0.903-0.083,1.873,0.02,2.475-0.905c0.787-3.197,3.178-1.565,4.996-1.679c1.289,0.388,1.668-0.735,2.359-1.38
	c1.106-1.032,2.286-1.55,3.521-0.141C54.434,92.172,54.285,93.054,53.593,93.848z"/>
<path fill-rule="evenodd" clip-rule="evenodd" fill="#DD4434" d="M94.11,88.688c-2.313-0.03-4.626-0.06-6.939-0.09
	c0.271-1.879,1.338-3.484,1.578-5.452c0.209-1.716,1.811-2.793,3.865-2.162c1.072,1.314-0.426,2.545-0.163,3.886
	c0.669-0.51,0.646-1.31,0.991-1.92c0.542-0.96,0.93-2.259,2.339-1.981c1.3,0.256,1.171,1.462,1.017,2.446
	c-0.478,3.039,2.613,0.938,3.273,2.31c0.031,0.666,0.237,1.228,0.896,1.524C98.869,88.618,96.487,88.642,94.11,88.688z"/>
<path fill-rule="evenodd" clip-rule="evenodd" fill="#DD4434" d="M101.548,87.226c0.422-2.273,2.245-1.455,3.569-1.532
	c1.845-0.107,3.702-0.006,5.554,0.006C107.783,87.12,104.684,87.28,101.548,87.226z"/>
<path fill-rule="evenodd" clip-rule="evenodd" fill="#572311" d="M127.728,79.619c0.794-0.952,1.589-1.904,2.383-2.856
	c0.382-0.553,0.847-0.483,1.344-0.181c0.344,1.389-1.521,1.785-1.384,3.081C129.29,79.648,128.509,79.634,127.728,79.619z"/>
<path fill-rule="evenodd" clip-rule="evenodd" fill="#F43825" d="M41.584,59.405c-0.545,1.724-1.089,3.449-1.634,5.174
	c-0.483,1.835-1.318,3.442-2.94,4.54c-2.026,2.304-4.761,3.431-7.513,4.53c-1.533,0.511-3.292,1.45-2.971-1.563
	c0.29-0.462,0.579-0.925,0.869-1.388c0.69-2.014,1.979-3.638,3.375-5.192c2.415-1.199,2.462-3.402,2.387-5.659
	c0.344-2.707,1.204-5.185,3.158-7.18c0.197-0.033,0.396-0.055,0.596-0.064c0.318-0.2,0.64-0.444,0.725-0.804
	c1.07-4.552,1.064-4.553,5.173-2.648c1.181,1.071,0.872,2.33,0.453,3.602c-0.243,0.261-0.522,0.481-0.83,0.659
	c-2.348,1.039-1.046,3.253-1.561,4.88C40.791,58.867,39.862,59.976,41.584,59.405z"/>
<path fill-rule="evenodd" clip-rule="evenodd" fill="#481F07" d="M40.152,65.417c1.004,0.26,2.007,0.52,3.011,0.78
	c1.283,2.429-0.738,4.207-1.282,6.262c-0.49,1.849-2.345,3.737-0.652,5.52c1.43,1.506,3.51,0.593,5.301,0.077
	c0.718-0.207,1.428-0.452,2.185-0.187c0.137,0.118,0.273,0.238,0.409,0.357c-1.735,2.605-7.716,4.302-9.99,2.54
	c-1.657-1.284-2.951-3.095-1.467-5.461c0.705-1.125,1.328-2.301,1.948-3.476c0.711-1.347,0.614-2.393-1.149-2.711
	C37.86,67.351,38.933,66.351,40.152,65.417z"/>
<path fill-rule="evenodd" clip-rule="evenodd" fill="#6D1B03" d="M65.565,76.603c-1.22,2.953-3.833,0.879-5.655,1.595
	c-0.913,0.358-3.098-1.391-2.624,1.457c-0.48,0-0.96,0-1.44,0c-1.826-0.936-2.998-2.291-2.875-4.479
	c1.547-3.105,3.252-6.082,6.538-7.722c0.868,0.398,1.521,1.013,1.906,1.896c0.005,3.053-3.25,3.849-4.462,6.382
	C59.866,76.466,62.95,74.685,65.565,76.603z"/>
<path fill-rule="evenodd" clip-rule="evenodd" fill="#DF3D33" d="M26.526,72.086c0.208,2.007,1.755,1.473,2.971,1.563
	c-1.737,2.396-4.609,1.237-6.856,2.128c-1.299,0.515-2.694,0.507-2.88,2.281c-0.661,0.765-1.322,1.53-1.984,2.295
	c-0.697-3.004,1.444-7.939,4.177-9.629C22.785,73.506,25.043,71.497,26.526,72.086z"/>
<path fill-rule="evenodd" clip-rule="evenodd" fill="#481F07" d="M53.532,75.064c0.089,1.874,1.409,3.127,2.313,4.591
	c-2.373,0.142-4.19-2.323-6.722-1.43c0,0-0.086-0.099-0.086-0.099c-0.23-1.117,0.717-1.448,1.328-2.008
	C51.366,75.611,52.093,74.254,53.532,75.064z"/>
<path fill-rule="evenodd" clip-rule="evenodd" fill="#4C1D09" d="M49.096,84.212c-2.623,1.283-5.415,1.605-8.288,1.465
	C43.143,82.771,46.338,84.733,49.096,84.212z"/>
<path fill-rule="evenodd" clip-rule="evenodd" fill="#462009" d="M62.689,78.865c-1.578-0.377-3.195-0.19-4.797-0.238
	c-0.627-0.003-1.251-0.007-1.878-0.013c-2.346,0.04-4.415-2.25-6.925-0.805c-0.32,0.201-0.608,0.437-0.905,0.665
	c-2.288,1.761-7.117,2.442-8.675,1.101c-2.775-2.39-0.215-4.479,0.506-6.657c0.115-0.349,0.369-0.655,0.47-1.014
	c0.469-1.658,0.21-2.977-1.694-3.48c-0.569-0.093-1.135-0.078-1.698,0.054c-2.748,1.604-5.463,3.264-8.361,4.585
	c-1.616,1.396-3.726,1.046-5.593,1.56c-1.967,0.54-3.804,1.146-4.245,3.493c-0.096,1.203-0.612,2.35-0.523,3.568
	c0.05,0.7,0.123,1.543,1.02,1.673c0.956,0.139,0.617-1.195,1.364-1.376c1.2-0.858,0.754-3.04,2.651-3.326
	c4.655-0.703,8.91-2.563,13.37-4.998c-1.016,3.657-1.308,6.677,2.239,8.519c0.439,0.228,0.932,0.542,0.609,1.099
	c-0.311,0.54-0.824,0.839-1.551,0.763c-2.654-0.279-5.142,0.686-7.703,1.11c3.218,1.137,6.565,0.172,9.827,0.599
	c0.33,0.167,0.675,0.208,1.036,0.121c2.28-1.283,4.881-0.399,7.247-1.092c0.33-0.145,0.616-0.349,0.853-0.622
	c0.247-0.49,0.299-0.991,0.103-1.511c-0.011-0.161-0.001-0.354,0.024-0.539c-0.113,0.033-0.228,0.064-0.34,0.1
	c0,0,0.005-0.029,0.005-0.03c0.159-1.548,2.084-3.094,2.975-2.353c0.581,0.483,0.476,1.184-0.2,1.489
	c-0.669,0.302-1.388,0.495-2.103,0.696c-0.048,0.079-0.082,0.158-0.072,0.233c0.105,0.864,0.778,1.063,1.433,1.278
	c3.942,0.134,7.597-1.85,11.577-1.611c0.692,0.042,1.458-0.466,1.539-1.342C64.374,79.466,63.559,79.073,62.689,78.865z"/>
<path fill-rule="evenodd" clip-rule="evenodd" fill="#912311" d="M40.152,65.417c-0.562,1.233-1.124,2.467-1.686,3.7
	c-0.486,0-0.971,0.001-1.456,0.002c0.578-1.774,1.544-3.297,2.94-4.541C40.018,64.858,40.085,65.138,40.152,65.417z"/>
<path fill-rule="evenodd" clip-rule="evenodd" fill="#EC3B29" d="M16.01,83.416c-0.742,1.041-1.985,0.813-2.989,1.081
	c-3.986,1.065-4.354,0.739-4.369-3.317c0.502-0.939,1.003-1.879,1.505-2.817c3.185-4.88,4.494-10.625,7.234-15.717
	c0.867-1.61,1.472-3.381,2.036-5.13c1.21-3.76,4.378-4.69,7.665-5.502c1.532,1.578,0.197,2.963-0.366,4.33
	c-3.442,8.364-7.287,16.559-10.587,24.984C15.853,82.058,15.557,82.687,16.01,83.416z"/>
<path fill-rule="evenodd" clip-rule="evenodd" fill="#4D1F09" d="M30.909,66.089c-0.93,1.721-1.566,3.666-3.514,4.609
	c-0.709-0.225-2.376,0.157-1.817-1.04c2.623-5.616,1.841-12.505,6.541-17.33c0.797-0.817,0.646-2.623,2.325-2.508
	c1.715,0.118,0.636,2.286,1.872,2.846c-0.059,2.67-2.39,4.617-2.333,7.324C33.132,62.111,33.005,64.597,30.909,66.089z"/>
<path fill-rule="evenodd" clip-rule="evenodd" fill="#F1A18A" d="M16.01,83.416c-2.107-0.538-1.102-1.651-0.601-2.813
	c3.689-8.561,7.344-17.137,10.968-25.725c0.378-0.897,0.486-1.908,0.717-2.865c0.818-0.494,1.378-1.519,3.262-1.116
	c-2.83,6.678-5.614,13.252-8.4,19.827c-1.943,2.974-3.203,6.243-4.179,9.632C17.188,81.375,16.599,82.396,16.01,83.416z"/>
<path fill-rule="evenodd" clip-rule="evenodd" fill="#9C8C7E" d="M27.088,42.812c0.292,0.244,0.518,0.876,0.971,0.165
	c0.71,0.149,1.421,0.298,2.132,0.448c-1.857,1.582,0.511,2.112,0.788,3.164c-1.095,1.478-3.228,1.096-4.393,2.447
	c-1.255,0.002-2.536,0.887-3.761-0.113c-1.545-0.403,3.705-3.262-1.213-2.507C22.842,44.034,26.024,44.966,27.088,42.812z"/>
<path fill-rule="evenodd" clip-rule="evenodd" fill="#DD4935" d="M42.889,49.688c-1.421,0.288-2.547-0.523-3.59-1.133
	c-1.585,1.047,0.48,3.939-2.386,4.048c0.496-1.699-0.297-3.043-1.197-4.359c1.234-2.024,3.552-0.548,5.094-1.577
	c0.457-0.014,0.914-0.028,1.37-0.043C43.055,47.498,44.158,48.318,42.889,49.688z"/>
<path fill-rule="evenodd" clip-rule="evenodd" fill="#4D1F09" d="M40.81,46.667c-1.521,1.101-3.444,0.899-5.095,1.576
	c-0.305-0.037-0.611-0.075-0.917-0.113c-0.23-0.763-0.438-1.485,0.806-1.467C37.338,46.688,39.074,46.668,40.81,46.667z"/>
<path fill-rule="evenodd" clip-rule="evenodd" fill="#F5BD20" d="M77.583,21.221c0.762-0.521,1.525-1.043,2.288-1.564
	c2.479-1.432,2.747,1.26,3.996,2.129c0.554,0.411,1.089,0.841,1.474,1.425c0.239,0.458,0.336,0.955,0.403,1.457
	c1.644,2.817,2.437,0.07,3.547-0.541c1.377-0.412,2.814-0.736,3.471-2.261c0.584-1.916-0.462-5.122,3.463-4.399
	c1.269,0.268,2.128,1.246,3.203,1.852c2.305,1.3,4.802,1.44,6.421-0.725c1.7-2.273,0.245-4.182-1.834-5.562
	c-0.527-0.35-1.017-0.715-1.124-1.395c-0.554-0.41,1.771-0.351,0.155-1.021c-0.435-0.18-0.342-0.848,0.023-1.276
	c1.033-0.478,2.066-0.956,3.1-1.433c2.681,4.299,5.663,8.428,7.452,13.229c-0.419,2.215-2.091,0.875-3.191,1.085
	c-1.018,0.194-1.973,0.397-2.439,1.427c-0.297,0.656,0.006,1.227,0.536,1.626c0.884,0.667,1.833,0.52,2.834,0.217
	c1.454-0.44,2.026-2.255,3.702-2.303c2.655,3.174,7.011,4.798,8.359,9.165c-0.896,2.703-2.96,1.649-4.747,1.487
	c-0.581-0.229-1.109-0.59-1.387-1.139c-1.924-3.805-5.054-4.21-8.719-3.145c-1.503,0.028-2.59,1.343-4.104,1.343
	c-2.034-0.378-4.071-0.754-5.391-2.607c0.002-0.511,0.202-0.96,0.454-1.398c0.483-0.84,1.449-1.725,0.646-2.686
	c-0.816-0.978-2.085-0.633-3.145-0.279c-1.12,0.375-2.101,1.195-2.107,2.386c-0.012,1.889,1.859,1.174,2.843,1.713
	c1.174,0.46,1.418,1.324,0.934,2.395c-1.025,2.262-0.284,4.354,0.539,6.451c0.162,0.708,0.178,1.416,0.047,2.128
	c-0.142,0.703-0.454,1.338-0.772,1.969c-0.788,2.015-0.317,5.203-4.174,4.379c-0.447-0.095-0.86,0.777-1.228,1.26
	c-1.145,1.734-2.27,2.603-2.882-0.285c-0.305-1.438-0.502-2.89-1.208-4.204c-0.43-0.766-1.028-1.449-1.183-2.353
	c0.319-1.467,1.902-1.346,2.727-2.181c1.263-1.242,3.54-1.952,2.926-4.257c-0.436-1.636-2.008-2.442-3.64-2.832
	c-2.7-0.645-4.513,0.621-5.844,2.834c-0.931,0.844-1.064,2.123-1.697,3.133c-1.074,1.219-2.522,1.469-4.032,1.567
	c-2.08-0.458-1.798-2.044-1.7-3.545c-0.605-2.665,2.655-3.252,2.92-5.449c-0.034-2.021-1.944-2.323-3.07-3.346
	C74.658,23.645,76.223,22.459,77.583,21.221z"/>
<path fill-rule="evenodd" clip-rule="evenodd" fill="#FBC07B" d="M109.715,3.254c0.887-0.725,1.773-1.45,2.66-2.174
	c1.423,0.039,2.956-0.649,4.188,0.638c3.497,7.938,8.386,14.952,14.063,21.475c2.121,2.438,4.231,4.974,5.134,8.188
	c0.781,2.78,0.087,3.754-2.623,4.011c-1.266,0.015-2.532,0.031-3.798,0.046c-0.381,0.175-0.879,0.085-0.891-0.262
	c-0.151-4.633-3.33-7.301-6.476-9.938c-2.708-2.27-5.012-4.761-6.307-8.142c-0.94-2.454-2.729-4.431-4.272-6.531
	C109.779,8.367,108.918,6.003,109.715,3.254z"/>
<path fill-rule="evenodd" clip-rule="evenodd" fill="#542309" d="M131.59,43.647c0.607,0.35,0.721,0.875,0.537,1.507
	c-4.018,0-8.033,0-12.05,0c-0.007,0.339-0.015,0.679-0.023,1.018c2.203,1.052,4.641,0.326,6.951,0.45
	c2.486,0.133,4.223,0.435,2.066,3.367c-0.715,0.972-1.04,2.191-1.603,3.272c-1.571,3.019-0.225,5.203,3.014,5.392
	c4.684,0.274,5.707,1.439,5.464,6.226c-0.673-0.024-1.115-0.419-1.467-0.937c-2.547-3.741-3.145-3.957-7.307-2.609
	c-4.219,1.6-4.521,1.307-4.038-3.902c0.279-2.075,1.11-3.976,1.911-5.884c0.732-1.746,0.229-2.557-1.71-2.345
	c-2.21,0.021-4.413,0.078-6.618-0.012c-1.273-0.082-2.583-0.063-3.417-1.297c-0.241-1.943-0.271-3.814,1.75-4.96
	c0.502,0.242,1.005,0.483,1.507,0.725c1.368-1.233,3.066-0.993,4.697-1.064C124.712,42.808,128.319,41.593,131.59,43.647z"/>
<path fill-rule="evenodd" clip-rule="evenodd" fill="#C25C22" d="M109.715,3.254c0.142,0.973-0.02,2.148,0.474,2.888
	c4.329,6.497,6.866,14.233,13.354,19.247c3.278,2.532,5.949,5.499,5.797,10.049c-1.923,1.395-2.446-0.494-2.921-1.495
	c-1.958-4.124-4.893-7.266-8.313-10.298c-4.518-4.004-6.391-9.92-9.111-15.189c-0.911-1.764,0.39-3.403,0.129-5.11
	C109.31,3.254,109.507,3.223,109.715,3.254z"/>
<path fill-rule="evenodd" clip-rule="evenodd" fill="#EAB632" d="M115.049,42.933c-0.489,1.515-0.979,3.029-1.468,4.544
	c-2.287-0.524-1.62-2.441-1.743-3.891c-0.327-3.843-0.635-4.241-4.507-4.068c-2.942,0.131-5.898,0.925-8.757-0.447
	c0-0.725,0.002-1.451,0.002-2.177c0.335-0.373,0.706-0.842,1.178-0.872c3.7-0.23,4.845-2.487,4.723-5.801
	c1.491-0.079,2.271-2.114,4.027-1.464c-1.503,6.208,0.783,8.585,7.154,7.434c0.613-0.111,1.227-0.204,1.851-0.24
	c1.442-0.056,2.884,0.004,4.322-0.077c1.666-0.499,3.3-0.848,4.386,1.058c-0.736,2.137-2.532,1.443-4.033,1.491
	C118.913,38.529,116.401,39.807,115.049,42.933z"/>
<path fill-rule="evenodd" clip-rule="evenodd" fill="#DF9862" d="M133.138,35.392c2.621-0.378,2.337-2.07,1.736-3.878
	c-1.205-3.62-3.729-6.364-6.223-9.084c-4.526-4.939-7.613-10.85-11.221-16.405c-0.778-1.198-1.056-2.773-0.866-4.307
	c0.417,0.26,1.05,0.421,1.218,0.792c4.453,9.884,12.55,17.233,18.223,26.264c0.752,2.194,1.204,4.429,0.89,6.763
	c-0.127,0.949-0.112,2.027-1.533,1.985C134.62,36.812,133.879,36.102,133.138,35.392z"/>
<path fill-rule="evenodd" clip-rule="evenodd" fill="#CD551A" d="M131.59,43.647c-3.503,0.003-7.006,0.007-10.509,0.01
	c-0.53-0.79-2.067-0.873-1.64-2.336c0.872-1.315,2.203-1.461,3.594-1.349c2.069,0.168,3.847-0.383,5.412-1.793
	c2.381-2.145,4.415-1.671,6.055,0.984C134.533,41.31,132.93,42.393,131.59,43.647z"/>
<path fill-rule="evenodd" clip-rule="evenodd" fill="#6E7118" d="M115.063,23.189c-1.104,1.598-1.994,3.355-4.328,3.584
	c-2.111,0.207-4.069-0.375-4.296-2.419c-0.24-2.157,1.792-2.86,3.754-3.221c1.173-0.215,2.3,1.275,3.428,0.003
	C114.465,21.565,114.987,22.22,115.063,23.189z"/>
<path fill-rule="evenodd" clip-rule="evenodd" fill="#D6AC35" d="M126.216,36.933c-1.222-1.137-2.491-0.377-3.748-0.092
	c-0.761-2.384-3.323-0.896-4.613-2.146c-0.242-0.524-0.211-1.021,0.142-1.487c1.8-0.332,3.813,0.683,5.424-0.855
	C124.619,33.718,125.563,35.236,126.216,36.933z"/>
<path fill-rule="evenodd" clip-rule="evenodd" fill="#AF5D1E" d="M119.441,41.322c0.472,0.831,1.714,1.121,1.64,2.336
	c-1.508,0-3.017,0-4.525,0C116.639,41.793,117.938,41.432,119.441,41.322z"/>
<path fill-rule="evenodd" clip-rule="evenodd" fill="#E23B2A" d="M127.097,60.232c4.865-1.514,5.751-1.049,8.85,4.646
	c-0.199,2.434-0.625,4.82-1.456,7.125c-0.863,1.618-1.573,3.337-2.986,4.599c0,0-0.049-0.019-0.049-0.019
	c-0.449,0.06-0.897,0.12-1.345,0.18c-0.073-1.25-0.065-2.378,1.008-3.392c3.549-3.35,1.499-7.377,1.805-11.677
	c-2.608,1.824,0.292,5.104-2.811,5.993c-0.075-1.567,1.551-3.147-0.038-4.702C129.285,61.849,126.167,63.229,127.097,60.232z"/>
<path fill-rule="evenodd" clip-rule="evenodd" fill="#572311" d="M131.504,76.602c0.559-1.816,1.557-3.347,2.986-4.598
	C134.092,73.923,133.966,76.021,131.504,76.602z"/>
<path fill-rule="evenodd" clip-rule="evenodd" fill="#E8B939" d="M103.07,9.34c-0.748,0.657,2.396,1.666-0.194,2.157
	c-0.157,0.198-0.327,0.443-0.551,0.478c-3.519,0.538-5.26,2.75-5.806,6.107c-1.872-0.146-3.162,0.208-2.493,2.585
	c0.197,0.7,0.053,1.5-0.709,1.965c-0.842-0.397-1.213-1.215-1.703-1.921c-1.26-1.815-3.005-2.51-5.162-2.239
	c-2.543,0.319-2.328,2.501-2.823,4.202c-2.136,0.094-1.106-3.755-3.759-3.018c3.062-2.759,6.469-4.913,10.487-5.999
	c0.565,0.981,0.596,2.46,2.604,2.431c-0.671-1.232-2.115-1.378-2.646-2.401C94.117,10.918,98.751,10.592,103.07,9.34z"/>
<path fill-rule="evenodd" clip-rule="evenodd" fill="#E2B53A" d="M77.583,21.221c-0.398,1.381-1.891,2.555-0.799,4.219
	c-1.192,1.526-3.157,1.805-4.626,2.877c-1.085,0.359-1.136,1.361-1.44,2.238c-0.261,0.752-0.525,1.673-1.696,1.101
	c-1.175-1.443-1.805-2.946-0.516-4.662C71.977,25.769,74.249,22.659,77.583,21.221z"/>
<path fill-rule="evenodd" clip-rule="evenodd" fill="#EBBA2B" d="M69.021,31.656c1.477-0.541,0.925-1.834,1.054-2.868
	c0.121-0.976,0.256-1.865,1.543-0.982c1.828,2.742,4.101,3.179,6.837,1.346c0.6-0.402,1.227-0.809,2.021-0.615
	c0.009,1.302,0.542,2.818-1.524,3.166c-1.815,0.305-1.244,1.829-1.398,2.968c-1.384,0.573-2.534-0.768-3.919-0.448
	c-1.896,0.438-3.219,1.469-3.139,3.478c0.079,1.992,1.888,1.4,3.104,1.738c1.801,0.501,3.001-0.773,4.46-1.277
	c1.229-0.814,4.145,1.955,3.961-1.866c0.24-1.1-0.511-2.578,1.189-3.122c2.481,2.793,2.481,2.793,7.85,5.244
	c-0.644,1.223-2.32,0.314-3.003,1.456c-2.708,2.538-5.853,3.957-9.616,4.168c-3.332,0.187-6.557,1.162-9.831,1.774
	c-1.716,0.321-3.423,0.63-5.036-0.361c-0.17-0.975-1.025-2.017,0.252-2.871c0.787-0.333,1.654,0.04,2.452-0.287
	c0.993-0.406,1.872-0.817,0.662-1.955c-0.756-1.413-1.512-2.826-2.269-4.238c1.036-1.054,2.398-1.876,2.535-3.568
	C67.811,32.242,68.416,31.949,69.021,31.656z"/>
<path fill-rule="evenodd" clip-rule="evenodd" fill="#EE3C28" d="M50.604,76.742c-0.522,0.462-1.044,0.924-1.566,1.385
	c-1.623,0.518-3.213,1.268-4.875,1.508c-4.329,0.626-5.726-1.187-4.185-5.297c1.022-2.728,2.594-5.242,3.186-8.141
	c1.521-1.138,1.746-3.064,2.194-4.593c0.958-3.264,2.732-3.284,5.236-2.191c0.24,0.276,0.304,0.593,0.223,0.945
	c-0.509,3.229-1.509,6.297-2.814,9.295c-0.475,1.09-1.817,2.339-0.16,3.597c0.321,0.037,0.621,0.12,0.918,0.233
	C49.562,74.464,52.743,74.107,50.604,76.742z"/>
<path fill-rule="evenodd" clip-rule="evenodd" fill="#7A3809" d="M85.892,52.759c0.362-1.431,2.956-0.173,2.722-2.182
	c-0.134-1.15-1.309-0.752-2.056-0.96c0.152-0.477-0.259,0.101-0.115-0.362c0.138-0.442,0.517-0.521,0.768-0.78
	c-0.355,0.104-0.716,0.063-1.084,0.041c-1.023-0.218-2.15-0.213-2.724-1.332c0.325-1.758,2.851-0.898,3.345-3.35
	c-8.485,2.466-16.85,3.824-25.385,3.852c-0.372,0.029-0.709-0.061-1.011-0.28c-0.752-1.158-1.849-2.18-1.488-3.776
	c0.275-0.232,0.592-0.373,0.948-0.426c1.219,0.156,2.499,0.167,3.308,1.339c1.758,0.976,3.626,0.642,5.405,0.25
	c6.558-1.445,13.456-1.557,19.53-4.917c0.538,0.521,1.075,1.042,1.613,1.563c0.796,2.712,0.547,5.537,0.892,8.298
	c0.313,2.512,1.306-0.069,1.914,0.257c1.563-0.09,3.071,0.061,4.442,0.891c0.303,0.31,0.351,0.658,0.149,1.041
	c-2.562,0.86-3.792,4.376-7.177,3.616C88.325,54.947,87.021,53.978,85.892,52.759z"/>
<path fill-rule="evenodd" clip-rule="evenodd" fill="#5E240F" d="M83.499,47.344c1.023,0.225,2.221-0.284,3.057,0.728
	c-3.356,2.802-7.572,2.066-11.417,2.542c-3.562,0.441-7.148,1.081-10.779,0.928c-1.637-0.069-2.691,1.181-4.018,1.814
	c-0.01,0.514-0.021,1.028-0.031,1.542c-0.265,0.01-0.53,0.021-0.794,0.03c-1.434,0.591-2.364,2.81-4.425,1.367
	c-1.053-0.992-2.366-0.548-3.577-0.621c-1.138-0.069-2.353,0.067-2.395-1.603c1.361-1.157,3.33-0.616,4.713-1.699
	c0.582-0.4,1.236-0.699,1.762-1.175c0.312-0.282,0.932-0.571,0.436-1.099c-0.321-0.342-0.884-0.212-1.355-0.211
	c-1.365-0.099-2.775,0.804-4.089-0.195c1.042-3.133,3.267-3.62,6.035-2.564c1.257,0.479,2.404,1.246,3.732,0.273
	c0.252-0.002,0.504-0.005,0.756-0.007c6.207,1.241,12.33-0.344,18.493-0.566C80.941,46.782,82.315,46.281,83.499,47.344z"/>
<path fill-rule="evenodd" clip-rule="evenodd" fill="#C73A2A" d="M50.604,76.742c1.047-2.385-2.428-1.369-2.302-3.062
	c0.859-1.381,2.734-0.397,3.679-1.579c5.069-4.03,6.241-10.328,9.101-15.644c3.105-1.425,6.394-0.811,9.622-0.864
	c0.313-0.224,0.638-0.23,0.97-0.051c0.623,2.432-1.107,2.319-2.569,2.232c-1.477-0.087-2.923-0.263-4.354,0.282
	c-1.724,0.658-2.747,1.642-1.806,3.623c-0.199,2.508-1.362,4.443-3.464,5.818c-1.982,2.522-3.964,5.045-5.947,7.567
	C52.254,75.095,51.985,76.891,50.604,76.742z"/>
<path fill-rule="evenodd" clip-rule="evenodd" fill="#7A2817" d="M51.98,72.101c-0.621,1.938-2.258,1.506-3.679,1.579
	c-0.184-0.037-0.368-0.058-0.555-0.062c-1.345-1.518,0.044-2.741,0.439-4.072c0.932-3.145,3.433-5.904,2.35-9.546
	c-0.007-0.198,0.012-0.394,0.058-0.587c3.644-0.522,3.673,1.537,2.736,4.022c-0.69,1.83-1.667,3.552-2.526,5.318
	C50.064,70.272,49.725,71.64,51.98,72.101z"/>
<path fill-rule="evenodd" clip-rule="evenodd" fill="#F23A35" d="M50.585,49.695c1.485-0.201,2.843-1.26,4.447-0.66
	c1.296,1.456,0.166,2.59-0.502,3.786c-1.312,2.541-3.544,1.106-5.411,1.253C48.625,52.285,49.704,51.023,50.585,49.695z"/>
<path fill-rule="evenodd" clip-rule="evenodd" fill="#ECB89B" d="M42.889,49.688c-0.235-1.021-0.471-2.042-0.708-3.063
	c3.842,0.613,4.287,2.291,1.807,6.822c-0.845,0.284-1.102-0.107-1.019-0.888C42.041,51.627,43.172,50.637,42.889,49.688z"/>
<path fill-rule="evenodd" clip-rule="evenodd" fill="#F69182" d="M42.97,52.558c0.34,0.296,0.679,0.593,1.019,0.888
	c-0.234,2.215-1.547,3.995-2.404,5.959c-0.733,0.293-1.503,0.662-1.462-0.689c0.874-1.952,0.063-4.548,2.287-5.984
	C42.609,52.718,42.797,52.66,42.97,52.558z"/>
<path fill-rule="evenodd" clip-rule="evenodd" fill="#C3A997" d="M44.594,40.701c0.487,0.007,0.974,0.015,1.461,0.022
	c1.293,1.227,3.163,0.544,4.574,1.38c0.684,0.079,1.367,0.158,2.051,0.237c-0.002,0.22-0.004,0.439-0.006,0.658
	c-2.675,0-5.35,0-8.024,0C44.482,42.237,43.304,41.499,44.594,40.701z"/>
<path fill-rule="evenodd" clip-rule="evenodd" fill="#FDF3ED" d="M30.979,46.588c-1.062-0.477-2.123-0.954-3.246-1.458
	c0.64-1.031,1.522-1.407,2.458-1.705c0.729,1.956,2.438,1.725,4.012,1.797C33.128,45.677,32.053,46.132,30.979,46.588z"/>
<path fill-rule="evenodd" clip-rule="evenodd" fill="#462009" d="M60.519,54.746c-0.347-0.132-0.698-0.155-1.061-0.078
	c-0.261-0.026-0.489,0.086-0.701,0.264c0.241-0.039,0.49-0.054,0.759-0.002c-1.29,1.285-1.482,4.351-4.505,2.823
	c-0.922-0.467-0.186-0.98,0.08-1.456c0.188,0.017,0.367,0.001,0.541-0.027c-0.14-0.154-0.286-0.334-0.442-0.556
	c-1.266-1.641-3.714-0.153-4.966-1.86c-0.368-1.53,0.479-2.706,1.148-3.935c1.099-2.165,2.831-2.598,5.021-1.862
	c1.408,0.473,2.866,1.179,4.065-0.427c0.432-1.422-0.753-2.535-0.754-3.874c-0.077-0.483-0.17-0.96-0.31-1.43
	c-0.503-0.992,0.005-2.188-0.652-3.147c-0.962,0.498-1.924,0.997-2.886,1.495c-2.01-1.472-4.161-1.207-6.347-0.508
	c-1.225,1.224-0.126,1.636,0.744,2.134c0.401,0.137,0.792,0.28,1.217,0.138c-0.137,0.144-0.344,0.169-0.625,0.086
	c-2.155-0.642-4.356-0.643-6.565-0.472c-3.369,0.613-6.729,1.272-9.983,2.38c-1.233,0.482-2.483,0.919-3.648,1.559
	c-1.26,1.144-3.915,0.417-4.062,3.047c-0.557,0.625-1.113,1.25-2.32,2.606c3.862-2.045,7.248-2.599,10.531-3.512
	c1.881-1.17,3.938-0.255,5.9-0.507c0.501,0.009,1.002,0.025,1.505,0.035c4.071,1.268,1.459,3.712,1.022,5.781
	c-0.602,2.04-1.684,3.878-2.459,5.844c-0.539,1.773-1.182,3.524-1.195,5.412c0.058,0.385,0.204,0.733,0.447,1.038
	c0.9,0.796,1.926,1.179,3.14,0.944c1.843-0.732,2.265-2.542,2.869-4.078c0.865-2.202,2.117-3.188,4.463-2.318
	c2.047-0.032,2.712,1.005,1.874,2.78c-0.891,1.885-1.602,3.842-2.409,5.756c-0.825,1.958-0.587,3.711,2.22,3.685
	c5.862-3.672,7.082-10.09,9.375-15.87C61.529,55.827,61.171,55.208,60.519,54.746z"/>
<path fill-rule="evenodd" clip-rule="evenodd" fill="#BD9D3D" d="M59.6,43.615l-0.367,0.029l-0.369-0.017
	c-0.078-0.455-0.155-0.909-0.234-1.364c1.814-2.159,4.16-0.185,6.173-0.793c0.152,0.653-0.149,0.97-0.773,1.048
	C62.603,43.078,61.015,42.996,59.6,43.615z"/>
<path fill-rule="evenodd" clip-rule="evenodd" fill="#817E6E" d="M50.629,42.104c-1.303,0.007-2.605,0.024-3.909,0.02
	c-1.174-0.003-1.002-0.668-0.665-1.4c1.022-0.005,2.044-0.011,3.067-0.017C49.625,41.172,50.127,41.638,50.629,42.104z"/>
<path fill-rule="evenodd" clip-rule="evenodd" fill="#745902" d="M64.038,42.171c0.255-0.234,0.51-0.467,0.766-0.701
	c0.902-0.02,1.63-0.368,2.137-1.13c0.889-0.3,1.783-0.321,2.129,0.703c0.377,1.115-0.568,1.453-1.372,1.757
	c-1.212,0.458-2.421,1.326-3.706,0.153c-0.21-0.187-0.273-0.365-0.189-0.534C63.883,42.254,63.962,42.171,64.038,42.171z"/>
<path fill-rule="evenodd" clip-rule="evenodd" fill="#D14837" d="M69.391,81.398c11.959-2.223,23.876-4.689,35.944-6.288
	c0.487-0.065,0.994,0.018,1.492,0.032c-0.733,1.766-2.301,1.498-3.743,1.536c-0.57,0.496-0.958,1.178-1.609,1.593
	c-2.658,1.852-5.847,1.395-8.785,2.028c-1.107,0.084-2.202,0.276-3.283,0.527c-1.529,0.355-2.373,1.178-2.077,2.903
	c0.169,0.984,1.05,2.376-0.607,2.777c-1.442,0.349-2.651-0.347-3.135-1.909c-0.391-1.857-0.983-2.623-2.326-0.531
	c-1.013,1.576-1.262,3.852-3.686,4.2c-1.86-0.708-0.7-2.037-0.655-3.137c0.214-0.768,0.601-1.48,0.936-2.34
	c-0.844,0.246-0.674,0.911-0.885,1.36c-0.5,1.447-0.295,3.284-2.194,3.944c-1.315-0.911-1.245-2.82-2.649-3.67
	c-0.503-0.579-0.606-1.27-0.566-2.001C70.838,82.082,70.114,81.74,69.391,81.398z"/>
<path fill-rule="evenodd" clip-rule="evenodd" fill="#FAB8A2" d="M92.478,79.57c2.871-1.364,6.281-0.406,9.073-2.108
	c1.622-0.285,1.212,1.039,0.839,1.457c-1.165,1.301-1.09,3.317-2.545,4.342c-0.882,0.621,0.104,0.654,0.158,0.965
	c0.023,0.5,0.046,1,0.069,1.5c-0.598,0.152-1.189,0.35-1.796,0.446c-2.213,0.351-3.961,0.25-2.358-2.717
	c0.417-0.772,1-1.698-0.216-2.082c-0.927-0.292-0.959,0.911-1.333,1.467c-0.259,0.385-0.142,1.049-0.429,1.386
	c-0.727,0.851-0.354,3.184-1.939,2.539c-1.7-0.691-0.888-2.391-0.037-3.713c0.377-0.586,0.462-1.36,0.681-2.048
	C92.116,80.579,92.127,80.094,92.478,79.57z"/>
<path fill-rule="evenodd" clip-rule="evenodd" fill="#DD4434" d="M100.002,84.225c-0.581-0.128-1.161-0.256-1.742-0.385
	c2.779-0.473,0.503-4.577,3.594-4.98c0.634-0.083,0.221-0.995-0.304-1.399c0.324-0.626,0.89-0.778,1.532-0.782
	C103.178,79.652,102.807,82.436,100.002,84.225z"/>
<path fill-rule="evenodd" clip-rule="evenodd" fill="#EEDAB9" d="M33.992,94.534c-0.194,0.086-0.392,0.164-0.594,0.233
	c-1.864-0.247-1.11-1.469-0.922-2.479c0.084-0.899,0.168-1.8,0.253-2.7c0.453-0.007,0.906-0.015,1.358-0.021
	c0.608,0.077,1.005,0.419,1.232,0.977C35.657,92.132,35.225,93.466,33.992,94.534z"/>
<path fill-rule="evenodd" clip-rule="evenodd" fill="#F4A797" d="M32.476,92.288c0.179,0.874-0.126,1.929,0.923,2.479
	c-0.328,1.081-0.319,2.479-1.745,2.721c-0.708,0.12-0.652-0.8-0.817-1.326C31.233,94.808,31.462,93.382,32.476,92.288z"/>
<path fill-rule="evenodd" clip-rule="evenodd" fill="#EC9F8A" d="M92.478,79.57c0.055,0.479,0.109,0.957,0.164,1.434
	c-1.981,0.695-3.81,1.346-3.029,4.209c0.488,1.792-1.624,2.24-2.439,3.386c-1.303,0.059-2.574-0.012-3.667-0.85
	c-0.845-1.408-1.421-2.762,0.707-3.584c0.126,1.788,1.558,1.493,3.128,1.838c-0.908-1.851-2.527-3.487-0.505-5.269
	C88.529,79.243,90.567,79.803,92.478,79.57z"/>
<path fill-rule="evenodd" clip-rule="evenodd" fill="#FAC4B3" d="M84.212,84.166c-1.059,1.033-0.524,2.38-0.706,3.585
	c-1.908,0.769-3.876,1.146-5.938,0.899c-0.216-0.144-0.287-0.285-0.211-0.424c0.074-0.137,0.148-0.206,0.222-0.206
	c1.774-1.198,2.182-3.244,3.101-4.975c0.526-0.989,1.022-2.141,2.438-1.876C85.063,81.532,84.139,83.056,84.212,84.166z"/>
<path fill-rule="evenodd" clip-rule="evenodd" fill="#F6AD99" d="M55.037,85.755c1.735-0.484,3.437-1.176,5.301-0.893
	c0.242,0.254,0.357,0.558,0.366,0.904c-0.524,1.268-2.1,2.03-1.786,3.704c-0.821,0.625-2.463,0.379-2.241,2.111
	c0.532,1.196,0.099,1.826-1.162,1.915c-1.332,0.093-1.577-0.774-1.559-1.842C53.505,89.541,52.178,87.265,55.037,85.755z"/>
<path fill-rule="evenodd" clip-rule="evenodd" fill="#DF4D3A" d="M68.662,90.958c-1.391,2.181-3.293,2.339-5.478,1.387
	c0.17-1.916-2.925-3.221-1.028-5.465c0.583-1.37,1.7-1.707,3.055-1.583c1.069-0.025,2.091-1.375,3.123-0.409
	c0.99,0.927,0.193,2.086-0.125,3.124c-0.27,0.881-1.172,1.786,0.136,2.581C68.455,90.712,68.559,90.835,68.662,90.958z"/>
<path fill-rule="evenodd" clip-rule="evenodd" fill="#EF3C2A" d="M72.325,84.1c3.065-0.062,2.03,2.253,2.231,3.851
	c0.666,0.735,0.602,1.476,0.019,2.221c-1.939,0.508-3.698,2.368-5.914,0.786c0.001,0-0.118-0.043-0.118-0.043
	c-0.215-0.306-0.238-0.63-0.1-0.972c1.878-1.478,2.103-3.792,2.925-5.806C71.679,83.915,71.999,83.904,72.325,84.1z"/>
<path fill-rule="evenodd" clip-rule="evenodd" fill="#FABEA5" d="M62.623,87.222c-0.122,0.824-0.244,1.648-0.369,2.495
	c1.01,1.055,1.396-1.392,2.431-0.39c0.469,1.444-1.041,1.983-1.5,3.018c-1.676,0.103-3.843,1.031-3.58-2.128
	c0.149-1.452-0.13-3.039,1.293-4.09C62.254,85.262,63.053,85.274,62.623,87.222z"/>
<path fill-rule="evenodd" clip-rule="evenodd" fill="#F6B393" d="M74.575,90.172c-0.006-0.741-0.012-1.481-0.019-2.222
	c0.968-1.358,1.444-2.885,1.551-4.539c1.315-0.229,1.337,0.807,1.585,1.622c0.346,1.01-1.003,1.956-0.114,2.986
	c0.008,0.211,0.004,0.421-0.011,0.631C76.514,89.047,75.921,90.352,74.575,90.172z"/>
<path fill-rule="evenodd" clip-rule="evenodd" fill="#CF4F4B" d="M61.091,86.427c-0.495,1.263-0.99,2.527-1.485,3.791
	c-0.229-0.25-0.458-0.499-0.688-0.748c-2.256-2.291-0.456-3.032,1.43-3.741C61.111,85.412,61.269,85.74,61.091,86.427z"/>
<path fill-rule="evenodd" clip-rule="evenodd" fill="#FE907F" d="M54.318,90.871c0.092,0.771-0.265,1.779,0.797,2.096
	c1.131,0.338,1.373-0.544,1.562-1.386c0.563,0.164,1.428,0.16,1.629,0.524c0.553,0.998-0.514,1.271-1.102,1.395
	c-1.176,0.247-2.405,0.247-3.611,0.348c0.024-0.994,0.05-1.987,0.074-2.981C53.886,90.624,54.103,90.625,54.318,90.871z"/>
<path fill-rule="evenodd" clip-rule="evenodd" fill="#F7CAB8" d="M48.271,93.333c-1.666,0.333-4.264-1.3-4.466,2.118
	c-1.476,0.752-1.785-0.168-1.737-1.313c0.073-1.745,0.548-3.426,1.049-5.093c0.176-0.353,0.411-0.662,0.7-0.931
	c1.764-0.551,3.38-3.077,5.385-0.403C50.788,89.899,50.176,91.724,48.271,93.333z"/>
<path fill-rule="evenodd" clip-rule="evenodd" fill="#F8B49F" d="M48.271,93.333c0.346-1.868,1.582-3.588,0.93-5.621
	c1.887-0.828,3.388-2.807,5.836-1.958c-1.291,1.559-0.925,3.35-0.719,5.118c0-0.001-0.326-0.009-0.326-0.009
	s-0.326,0.005-0.326,0.004c-1.749-0.168-2.642,0.7-3.198,2.317C49.984,94.587,49.149,95.486,48.271,93.333z"/>
<path fill-rule="evenodd" clip-rule="evenodd" fill="#F3A894" d="M72.325,84.1c-0.261,0.065-0.522,0.13-0.783,0.195
	c-0.882,1.965-1.091,4.248-2.75,5.848c-0.083,0.257-0.166,0.514-0.249,0.771c-1.193,0.617-2.291,0.85-2.057-1.059
	c0.1-0.814,0.678-1.573,1.052-2.35c1.12-2.321,0.065-2.631-1.922-2.088c-0.008-0.14-0.016-0.281-0.023-0.421
	c1.558-1.86,3.775-2.188,5.969-2.571C72.139,82.835,72.434,83.376,72.325,84.1z"/>
<path fill-rule="evenodd" clip-rule="evenodd" fill="#F6CEB7" d="M43.816,88.115c0,0.176,0,0.352,0.001,0.527
	c-2.726,1.798-2.31,4.869-3.03,7.48c-1.178-0.613-3.833,2.527-3.686-1.451c0.665-1.266-0.029-2.746,0.624-4.017
	c0.145-0.52,0.449-0.944,0.81-1.333C39.9,87.188,41.965,88.12,43.816,88.115z"/>
<path fill-rule="evenodd" clip-rule="evenodd" fill="#FED0CA" d="M38.536,89.321c-0.001,0.573-0.002,1.146-0.003,1.718
	c-2.079,3.202-2.737,0.271-3.807-0.882c-0.212-0.197-0.425-0.395-0.638-0.591C35.493,88.083,37.027,88.934,38.536,89.321z"/>
<path fill-rule="evenodd" clip-rule="evenodd" fill="#F09D81" d="M65.593,84.996c0.012,0.142,0.019,0.284,0.023,0.424
	c-1.244,0.19-2.33,0.646-2.994,1.802c-0.034-1.183-0.607-1.327-1.532-0.794c-0.248-0.233-0.495-0.466-0.743-0.698
	c-0.003-0.288-0.006-0.577-0.009-0.866C62.094,84.735,63.856,84.374,65.593,84.996z"/>
<path fill-rule="evenodd" clip-rule="evenodd" fill="#DA6354" d="M40.788,96.122c-1.982-3.207-0.61-6.594,3.03-7.48
	c0.395,1.662-0.603,3.08-0.798,4.634c-0.101,0.803-1.02,2.018,0.785,2.175C43.003,96.594,41.83,96.062,40.788,96.122z"/>
<path fill-rule="evenodd" clip-rule="evenodd" fill="#EA9C89" d="M34.726,90.157c1.392-0.235,2.003,2.901,3.807,0.881
	c-0.405,1.24-0.454,2.619-1.431,3.633c-0.929-2.499-2.114,0.85-3.109-0.137C34.237,93.075,34.481,91.616,34.726,90.157z"/>
<path fill-rule="evenodd" clip-rule="evenodd" fill="#ED3B27" d="M116.612,48.203c2.508-0.023,5.016-0.045,7.523-0.068
	c1.261,1.639,0.632,3.28,0.025,4.934c-0.812,2.212-1.872,4.333-2.483,6.616c-0.362,1.353-0.84,2.853,1.524,2.725
	c1.176,0.293,3.115-0.23,2.324,2.162c-1.16,0.937-2.257,1.972-3.501,2.781c-1.027,0.669-2.607,1.817-3.29,1.47
	c-4.085-2.078-7.848,0.84-11.761,0.413c-0.123-0.014-0.283,0.042-0.369-0.016c-4.446-3.027-7.707,0.461-11.404,1.953
	c-4.184,1.688-8.741,1.778-13.143,2.528c-1.164,0.455-2.428,1.022-3.282-0.366c-0.676-1.097-0.134-2.221,0.646-3.056
	c2.095-2.245,3.897-4.834,6.849-6.125c1.415-0.3,2.497,0.738,3.788,0.943c6.572,0.67,12.114-0.939,15.633-7.045
	c3.362-1.856,3.407-1.839,4.061,1.533c-0.141,0.853-0.625,1.595-0.825,2.428c-0.135,0.561-0.567,1.343,0.094,1.65
	c0.375,0.174,0.875-0.793,1.584-0.625c0.568,0.317,1.335,1.552,1.736,0.622c1.738-4.032,5.711-7.392,4.043-12.517
	c0.159-0.574,0.223-1.14-0.205-1.647C116.088,48.984,116.169,48.533,116.612,48.203z"/>
<path fill-rule="evenodd" clip-rule="evenodd" fill="#EB3826" d="M65.565,76.603c-2.69,0.086-5.399-0.135-8.048,0.608
	c-0.801,0.224-1.794,0.478-2.269-0.535c-0.464-0.989,0.357-1.593,0.976-2.162c1.79-1.644,3.717-3.153,4.987-5.287
	c0.902-1.727,1.837-3.413,4.174-3.351c1.377,1.072-0.189,2.396,0.305,3.546c2.534,1.869,4.951,0.703,7.374-0.27l-0.009,0.005
	c1.159-0.449,2.508-1.092,3.184,0.461c0.592,1.362-0.962,1.779-1.671,2.544C72.219,74.968,68.791,75.58,65.565,76.603z"/>
<path fill-rule="evenodd" clip-rule="evenodd" fill="#641A04" d="M86.622,64.686c-1.999,1.869-4.038,3.697-5.977,5.625
	c-0.747,0.743-2.018,1.509-1.348,2.795c0.546,1.048,1.841,0.324,2.762,0.593c-1.448,1.598-2.862,1.723-4.133-0.175
	c-0.496-0.741-1.001-1.37-1.966-1.412c-0.099-1.225,0.64-2.229,1.342-2.937c3.009-3.033,5.366-6.515,7.568-10.134
	c0.585-0.962,1.369-1.771,2.379-2.329c0.344-0.169,0.705-0.281,1.08-0.355c1.351-0.172,2.691-0.241,3.962,0.391
	c1.336,2.4-0.768,3.521-1.894,4.976C89.395,63.017,88.02,63.876,86.622,64.686z"/>
<path fill-rule="evenodd" clip-rule="evenodd" fill="#D03E2F" d="M87.37,57.21c-3.478,5.216-7,10.399-11.41,14.903
	c-0.464,0.017-0.928,0.034-1.392,0.051c1.094-1.806,1.715-3.375-1.513-3.005c5.246-2.861,8.525-7.349,10.647-12.813
	c0.306-0.788,0.535-1.675,1.391-2.124C85.949,55.145,86.566,56.248,87.37,57.21z"/>
<path fill-rule="evenodd" clip-rule="evenodd" fill="#B33F2E" d="M125.526,64.571c-0.23-1.998-1.8-1.242-2.917-1.417
	c-2.398-1.978-1.741-4.648,1.49-6.055c-0.015,0.369-0.072,0.742-0.036,1.106c0.107,1.078-1.128,2.339-0.163,3.126
	c1.297,1.059,2.047-0.897,3.196-1.099c-0.145,2.149,3.014,0.726,2.979,2.755C128.315,62.814,126.924,63.703,125.526,64.571z"/>
<g>
	<path fill="#481F07" d="M49.124,82.172c0,0.01,0,0.021,0,0.031l0.334,0.038L49.124,82.172z"/>
	<polygon fill="#481F07" points="49.119,82.202 49.124,82.203 49.124,82.203 	"/>
	<path fill="#481F07" d="M130.277,62.646c-2.011-0.78-3.625,0.185-5.229,1.195c-1.386,0.85-2.586,1.947-3.91,2.875
		c-1.278,0.896-2.616,1.194-4.223,0.879c-5.047-0.99-10.245,1.638-15.276-0.561c-0.283-0.124-0.757,0.078-1.055,0.295
		c-5.364,3.923-11.891,4.09-18.005,5.6c-2.882,2.288-4.381-1.303-6.664-1.551c-0.543-0.032-1.08,0.023-1.603,0.183
		c-2.829,2.132-6.233,3.148-9.293,4.825c-1.994,1.351-4.317,0.408-6.421,0.922c-1.111,0.271-3.173,0.292-1.314,2.346
		c2.097,0.173,4.279-0.324,6.327,0.917c-5.019-0.705-9.443,3.015-14.489,1.631c-0.002,0.671-0.005,1.341-0.007,2.013
		c1.595-0.065,3.288,0.19,4.769-0.255c5.072-1.524,10.353-1.628,15.505-2.563c5.906,0.307,11.61-1.029,17.349-2.106
		c6.721-1.262,13.45-2.486,20.087-4.149c1.082-0.261,2.165-0.518,3.246-0.783c6.861-1.68,14.487-1.064,20.04-6.672
		C131.199,66.04,131.945,64.381,130.277,62.646z M76.348,76.753c-1.058,1.263-2.535,1.188-4.693,1.121
		c1.746-1.247,2.705-2.458,4.308-2.309C76.371,75.604,76.726,76.302,76.348,76.753z M103.695,72.359
		c-1.529,1.019-3.351,1.222-5.647,1.194c1.514-1.817,2.784-3.14,4.879-2.563C103.499,71.147,104.171,72.043,103.695,72.359z"/>
</g>
<path fill-rule="evenodd" clip-rule="evenodd" fill="#D73F2A" d="M30.909,66.089c1.017-2.036,1.183-4.501,3.074-6.097
	C34.174,62.636,34.461,65.33,30.909,66.089z"/>
<path fill-rule="evenodd" clip-rule="evenodd" fill="#DD4935" d="M42.409,52.732c-0.762,1.995-1.525,3.99-2.287,5.984
	c-0.011-1.344,0.008-2.689-0.042-4.033C40.017,52.998,40.956,52.575,42.409,52.732z"/>
<path fill-rule="evenodd" clip-rule="evenodd" fill="#63210A" d="M65.555,66.112c-2.021,0.24-2.47,2.672-4.345,3.116
	c-1.097-0.054-1.643-0.661-1.729-1.729c1.041-1.938,2.083-3.874,3.125-5.81c0.98-2.742,3.216-2.677,5.425-2.234
	c1.863,0.374,2.154,1.732,1.469,3.37C68.503,64.298,67.202,65.413,65.555,66.112z"/>
<path fill-rule="evenodd" clip-rule="evenodd" fill="#7B3B0A" d="M116.612,48.203c-0.015,0.442-0.029,0.884-0.044,1.325
	c-0.59,0.749-1.394,1.021-2.313,1.043c-0.9-0.007-1.743-0.185-2.43-0.822c-1.619-1.88,0.267-4.029-0.45-5.977
	c-2.994-3.564-6.681-1.726-10.172-1.427c3.303,1.299,7.09-1.084,10.229,1.485c0.318,0.619,0.229,1.174-0.239,1.682
	c-3.686,1.114-7.508,1.064-11.29,1.381c-4.145-0.873-2.167-3.831-2.093-6.143c0.254-0.559,0.508-1.119,0.762-1.678
	c3.711-0.194,7.42-0.463,11.134-0.553c2.404-0.059,3.096,1.48,3.208,3.684c0.089,1.756-1.087,3.723,0.667,5.274
	C114.394,48.542,115.597,47.982,116.612,48.203z"/>
<path fill-rule="evenodd" clip-rule="evenodd" fill="#A84504" d="M117.998,33.208c0.01,0.586,0.021,1.172,0.031,1.758
	c0.623,0.88,0.193,1.36-0.643,1.686c-2.626,0.68-5.203,1.615-7.885-0.001c-3.257-1.963-3.705-5.059-1-7.893
	C114.073,27.155,116.361,28.227,117.998,33.208z"/>
<path fill-rule="evenodd" clip-rule="evenodd" fill="#AB4606" d="M96.519,18.082c-0.449-5.027,0.542-6.052,6.358-6.585
	c0.442,0.216,0.883,0.435,1.328,0.646c2.757,1.304,4.117,3.553,2.946,6.358c-1.205,2.886-3.958,3.08-6.717,2.37
	C98.792,20.448,97.756,19.108,96.519,18.082z"/>
<path fill-rule="evenodd" clip-rule="evenodd" fill="#A68226" d="M104.476,30.222c1.693,5.369,1.453,5.64-5.9,6.673
	c-2.741-2.512-0.754-5.465-0.77-8.231c0.042-1.336,0.757-1.157,1.593-0.708C101.091,28.711,102.783,29.467,104.476,30.222z"/>
<path fill-rule="evenodd" clip-rule="evenodd" fill="#A74104" d="M91.059,38.417c-6.074,0.18-7.035-0.463-7.85-5.244
	c0.89-1.656,1.791-3.357,3.875-3.702c3.093-0.511,5.893,0.273,7.286,3.192C95.866,35.8,92.851,36.876,91.059,38.417z"/>
<path fill-rule="evenodd" clip-rule="evenodd" fill="#677D37" d="M80.476,28.536c-1.257,1.134-2.439,2.437-4.248,2.623
	c-2.498,0.257-4.73,0.042-4.611-3.352c1.521-1.232,3.086-2.363,5.168-2.367C78.641,25.726,80.172,26.399,80.476,28.536z"/>
<path fill-rule="evenodd" clip-rule="evenodd" fill="#AA7F21" d="M78.284,38.489c-1.854,3.417-4.935,1.9-7.477,1.56
	c-1.279-0.171-1.79-1.927-1.263-3.447c0.843-2.432,2.596-3.478,5.122-3.48c1.285-0.001,1.916,1.054,2.886,1.547
	c0.034,1.022-1.105,2.338,0.729,2.91C78.501,37.882,78.49,38.186,78.284,38.489z"/>
<path fill-rule="evenodd" clip-rule="evenodd" fill="#E5D6BD" d="M85.156,24.716c-0.006-0.393-0.012-0.785-0.018-1.178
	c-0.282-1.583-2.656-3.235,0.057-4.725c2.23-1.224,4.426-0.811,6.055,0.998c1.371,1.522,1.608,3.183-1.141,3.658
	c-1.135,0.053-1.118,1.149-1.642,1.768C87.149,26.791,85.987,26.621,85.156,24.716z"/>
<path fill-rule="evenodd" clip-rule="evenodd" fill="#A07C21" d="M89.565,22.949c2.696-0.289,2.482-1.701,0.986-3.117
	c-1.492-1.413-3.352-1.491-5.179-0.41c-2.344,1.387,0.634,2.131,0.374,3.242c-0.076,0.32-0.398,0.583-0.608,0.874
	c-0.503-0.288-1.007-0.576-1.51-0.864c-1.147-1.391-1.007-2.807,0.206-3.985c1.453-1.414,3.356-1.651,5.214-1.125
	c2.487,0.704,3.912,2.481,4.27,5.068c-0.857,1.396-1.911,2.327-3.685,1.556C89.223,23.796,89.187,23.383,89.565,22.949z"/>
<path fill-rule="evenodd" clip-rule="evenodd" fill="#6A670D" d="M99.398,27.955c-0.669-0.074-1.226,0.103-1.593,0.708
	c-1.718,0.156-3.82,0.722-4.136-1.786c-0.243-1.93,1.208-3.257,2.928-3.865c1.6-0.566,3.704-1.3,4.783,0.442
	C102.596,25.417,101.208,26.945,99.398,27.955z"/>
<path fill-rule="evenodd" clip-rule="evenodd" fill="#DDAD2F" d="M92.499,50.369c-0.962,0.749-0.178,3.081-1.846,2.79
	c-1.811-0.316-0.973-2.263-1.015-3.501c-0.092-2.737,0.008-5.481,0.029-8.221c1.338,1.774,1.396,3.871,1.46,5.982
	c1.017-0.021,0.625-1.306,1.41-1.481c0.903,0.765,0.943,1.787,0.858,2.85C93.286,49.42,92.986,49.948,92.499,50.369z"/>
<path fill-rule="evenodd" clip-rule="evenodd" fill="#795620" d="M92.552,48.879c-0.005-0.981-0.009-1.962-0.014-2.942
	c0.948-2.131,2.335-2.792,4.222-1.085c0.891-1.406-0.081-3,1.05-4.102c0.696,1.771-1.705,4.931,2.333,5.2
	c-0.228,1.881-1.805,1.955-3.034,1.854c-1.431-0.117-2.306,0.416-3.117,1.391C93.449,49.38,92.954,49.337,92.552,48.879z"/>
<path fill-rule="evenodd" clip-rule="evenodd" fill="#725C03" d="M78.284,38.489c0-0.303-0.001-0.605-0.002-0.909
	c0.948-1.295,2.6-0.544,3.738-1.286c0.627,0.645,2.138,0.734,1.669,2.051c-0.331,0.929-1.439,0.818-2.3,0.778
	C80.327,39.074,79.134,39.596,78.284,38.489z"/>
<path fill-rule="evenodd" clip-rule="evenodd" fill="#AA8323" d="M89.565,22.949c0.022,0.413,0.044,0.825,0.066,1.238
	c-0.642,2.825-2.179,3.68-4.701,2.022c-0.699-0.459-0.234-1.046,0.225-1.492c1.554,1.081,2.853,1.468,3.111-1.109
	C88.354,22.745,88.946,22.802,89.565,22.949z"/>
<path fill-rule="evenodd" clip-rule="evenodd" fill="#F9A995" d="M124.1,57.098c-1.764,1.707-2.979,3.548-1.49,6.055
	c-2.203,0.669-3.061-0.077-2.37-2.544c0.723-2.577,1.781-5.08,2.913-7.514c0.752-1.617,1.17-3.203,0.982-4.961
	c2.565-0.644,3.23,0.293,2.292,2.682C125.611,52.895,124.872,55.003,124.1,57.098z"/>
<path fill-rule="evenodd" clip-rule="evenodd" fill="#725E04" d="M117.386,36.651c0.215-0.563,0.429-1.127,0.643-1.688
	c1.062-0.255,2.145-0.786,3.181-0.706c1.521,0.119,2.715,0.813,1.259,2.583C120.774,36.777,119.08,36.714,117.386,36.651z"/>
<path fill-rule="evenodd" clip-rule="evenodd" fill="#7B5F03" d="M90.314,13.687c0.481,0.131,0.982,0.213,1.438,0.403
	c1.213,0.503,3.184,0.719,2.742,2.429c-0.47,1.816-1.985,0.454-3.093,0.267c-2.391-0.404-2.083-1.624-1.044-3.128
	C90.357,13.657,90.314,13.687,90.314,13.687z"/>
<path fill-rule="evenodd" clip-rule="evenodd" fill="#E9C237" d="M64.038,42.171c-0.016,0.261-0.031,0.521-0.047,0.782
	c-0.712,0.298,0.135,1.45-0.871,1.587c-1.261,0.023-2.424-0.326-3.521-0.925C60.358,40.92,62.576,42.707,64.038,42.171z"/>
<path fill-rule="evenodd" clip-rule="evenodd" fill="#4B2008" d="M89.22,50.471c-0.186-1.117-0.958-1.446-1.85-1.561
	c-0.271,0.236-0.542,0.472-0.812,0.707c-5.761,2.379-11.832,3.019-17.986,3.192c-2.172,0.925-4.467,0.707-6.737,0.724
	c-0.498-0.059-0.996-0.117-1.494-0.176c0.027-0.073,0.062-0.129,0.091-0.198c-0.077,0.043-0.156,0.082-0.23,0.137
	c-0.318,0.559-0.33,1.096,0.108,1.604c0.257,0.519,0.514,1.038,0.771,1.558c2.991,0.534,5.985,0.215,8.982,0.017
	c2.726-0.667,5.486-0.972,8.877-1.208c-1.62,2.133-3.085,3.564-4.756,4.805c-1.938,1.489-3.703,3.174-5.447,4.877
	c-0.418,0.583-0.812,1.184-1.19,1.793c-0.525,1.043-1.968,1.96-1.032,3.254c0.826,1.14,2.264,0.757,3.482,0.502
	c0.851-0.178,1.704-0.354,2.545-0.582c0.354-0.104,0.697-0.227,1.03-0.386c3.167-1.359,5.502-3.697,7.542-6.379
	c1.962-2.579,2.856-5.729,4.499-8.481c0.425-0.583,0.944-1.077,1.479-1.553C88.183,52.541,89.487,52.078,89.22,50.471z"/>
<path fill-rule="evenodd" clip-rule="evenodd" fill="#B94234" d="M71.663,55.754c-0.319-0.054-0.639-0.106-0.959-0.16
	c1.074-0.855,2.368-0.62,3.582-0.662c1.982-0.068,4.746-2.114,5.693-0.025c0.765,1.687-2.354,3.049-3.725,4.573
	c-0.475,0.528-1.17,0.858-1.764,1.278c-0.569-0.575-0.564-1.253-0.361-1.967c1.594-1.711,1.004-2.393-1.118-2.348
	C72.491,56.348,72.058,56.089,71.663,55.754z"/>
<path fill-rule="evenodd" clip-rule="evenodd" fill="#E93728" d="M87.37,57.21c-2.325,0.197-2.406-1.315-2.277-2.988
	c0.267-0.488,0.532-0.977,0.799-1.464c1.91-0.422,2.644,1.144,3.69,2.182c0.425,1.366-0.97,1.411-1.509,2.077
	C87.849,57.123,87.615,57.187,87.37,57.21z"/>
<path fill-rule="evenodd" clip-rule="evenodd" fill="#F29886" d="M74.8,58.712c-0.104,0.683-0.208,1.365-0.311,2.047
	c-1.721,1.512-3.443,3.025-5.165,4.539c-0.505,0.586-1.123,0.707-1.44-0.048c-0.443-1.057,0.726-1.431,1.146-2.129
	c1.623-1.614,1.995-4.462,4.82-4.896C74.224,58.275,74.541,58.438,74.8,58.712z"/>
<path fill-rule="evenodd" clip-rule="evenodd" fill="#D03E2F" d="M73.063,69.153c-2.582,2.17-6.164,2.192-8.22,0.051
	c0.987-1.083,1.275-3.23,3.56-2.334c-0.125,1.139-1.744,1.486-1.518,2.863C69.052,70.577,70.966,68.815,73.063,69.153z"/>
<path fill-rule="evenodd" clip-rule="evenodd" fill="#EB645B" d="M68.403,66.87c-1.604,0.143-2.233,1.77-3.561,2.333
	c-0.973-1.309,1.225-1.888,0.712-3.091c0.439-1.609,1.932-2.143,3.085-3.024c0.27-0.254,0.5-0.209,0.695,0.094
	c0.321,0.708-2.267,1.4-0.011,2.117C69.419,66.057,68.815,66.407,68.403,66.87z"/>
<path fill-rule="evenodd" clip-rule="evenodd" fill="#422410" d="M61.835,53.533c2.174-0.903,4.438-0.986,6.737-0.724
	C66.568,55.301,64.173,54.15,61.835,53.533z"/>
<path fill-rule="evenodd" clip-rule="evenodd" fill="#F6A18A" d="M50.536,60c2.328,0.855,1.504,2.511,0.948,4.003
	c-1.201,3.221-2.486,6.411-3.737,9.614c-0.239,0.454-0.134,1.442-1.072,0.906c-0.701-0.401-0.892-1.295-0.66-1.966
	C47.471,68.354,49.018,64.183,50.536,60z"/>
<path fill-rule="evenodd" clip-rule="evenodd" fill="#C9561D" d="M83.499,47.344c-6.16,0.721-12.311,1.556-18.529,1.573
	c-1.474,0.004-3.071,0.244-3.862-1.52c0.115-0.854,0.424-1.2,1.453-1.119c7.597,0.599,14.928-0.775,22.106-3.172
	c0.989-0.33,2.034-1.494,3.008-0.394c0.467,0.527,0.399,1.635,0.368,2.473c-0.061,1.651-1.389,1.434-2.476,1.497
	C84.816,46.726,84.073,46.761,83.499,47.344z"/>
<path fill-rule="evenodd" clip-rule="evenodd" fill="#E54030" d="M88.072,57.018c-0.068-1.107,1.073-1.336,1.509-2.078
	c1.379,0.088,2.948,0.228,3.486-1.348c0.762-2.23,2.54-1.432,3.994-1.67c0.155,0.106,0.311,0.213,0.468,0.318
	c1.812,3.185-0.325,4.433-2.724,5.557c-0.795,0.103-1.526,0.006-2.059-0.684C91.189,57.082,89.63,57.05,88.072,57.018z"/>
<path fill-rule="evenodd" clip-rule="evenodd" fill="#E3452F" d="M97.179,51.263c2.249,0.024,4.518-0.581,7.254,0.095
	c-1.286,1.307-1.908,2.653-3.566,2.822c-1.067-0.911-2.399-1.355-3.592-2.046c0,0-0.212-0.212-0.212-0.211
	C97.093,51.701,97.132,51.481,97.179,51.263z"/>
<path fill-rule="evenodd" clip-rule="evenodd" fill="#EE976D" d="M54.53,52.821c0.168-1.262,0.335-2.524,0.503-3.786
	c1.045-0.056,2.682-0.813,2.861,0.644C58.153,51.771,56.064,52.184,54.53,52.821z"/>
<path fill-rule="evenodd" clip-rule="evenodd" fill="#F23A29" d="M69.335,63.182c-0.232-0.028-0.465-0.059-0.696-0.093
	c1.126-2.265,0.356-3.016-2.066-2.896c-1.553,0.076-2.79,0.616-3.968,1.497c-3.241-1.813-0.82-3.371,0.567-4.097
	c1.6-0.837,3.532-1.676,5.588-0.757c1.188,0.531,2.434,0.609,2.901-1.083c0.507,0.026,1.014,0.052,1.521,0.078
	c0.709,0.816,1.677,1.583,0.518,2.751C72.246,60.115,70.791,61.649,69.335,63.182z"/>
<path fill-rule="evenodd" clip-rule="evenodd" fill="#FED8C7" d="M77.692,85.034c-0.529-0.541-1.057-1.081-1.585-1.622
	c0.112-2.605,2.095-1.434,4.067-2.644C78.951,82.87,78.321,83.952,77.692,85.034z"/>
<path fill-rule="evenodd" clip-rule="evenodd" fill="#CD4434" d="M68.792,90.143c0.804-2.002,0.901-4.338,2.75-5.849
	C71.729,86.763,71.643,89.104,68.792,90.143z"/>
<path fill-rule="evenodd" clip-rule="evenodd" fill="#75230C" d="M116.573,50.644c2,0.851,1.944,2.553,1.313,4.073
	c-1.325,3.191-2.867,6.296-4.419,9.386c-0.429,0.854-1.151,1.929-2.254,1.589c-0.951-0.293-0.522-1.522-0.722-2.333
	c-0.69-0.935-0.413-1.896,0.014-2.796c1.319-2.782,2.637-5.559,3.717-8.45C114.572,51.173,115.058,49.951,116.573,50.644z"/>
<path fill-rule="evenodd" clip-rule="evenodd" fill="#F5A298" d="M116.573,50.644c-3.06,3.743-3.958,8.52-6.083,12.713
	c-1.098,0.419-0.103,2.845-1.712,2.269c-1.325-0.475-1.58-2.141-0.863-3.576c0.33-0.659,0.752-1.272,1.132-1.906
	c1.494-3.601,1.713-7.838,5.214-10.436c0.769-0.06,1.537-0.12,2.306-0.181C117.19,49.897,117.09,50.27,116.573,50.644z"/>
<path fill-rule="evenodd" clip-rule="evenodd" fill="#D9422A" d="M114.262,49.708c-2.176,3.26-2.65,7.37-5.214,10.436
	c0.612-3.817-1.617-1.929-3.098-1.543c0.978-3.709,3.649-6.232,6.189-8.847C112.847,49.74,113.555,49.724,114.262,49.708z"/>
<path fill-rule="evenodd" clip-rule="evenodd" fill="#CE4D3D" d="M92.747,57.114c0.757,0.037,1.515,0.074,2.272,0.112
	c0.708,1.632-0.528,2.442-1.461,3.337c-0.763,0.731-1.909,1.184-1.607,2.568c-0.759,0.973-1.519,1.945-2.277,2.917
	c-1.387,0.377-1.75-1.545-3.052-1.361C88.303,61.87,91.58,60.345,92.747,57.114z"/>
<path fill-rule="evenodd" clip-rule="evenodd" fill="#CF571C" d="M111.253,43.619c-3.085,0.127-6.19-0.215-9.247,0.64
	c-1.182,0.331-2.556,0.39-2.653-1.543c-0.088-1.753,0.944-2.049,2.359-2.043c2.233,0.008,4.475,0.071,6.698-0.094
	c2.335-0.174,3.206,0.79,2.86,3.027C111.271,43.604,111.253,43.619,111.253,43.619z"/>
<path fill-rule="evenodd" clip-rule="evenodd" fill="#DF4322" d="M111.932,30.181c2.89-0.332,4.237,1.288,4.383,3.356
	c0.13,1.854-1.534,2.756-3.401,2.575c-2.318-0.224-4.286-1.283-4.27-3.822C108.657,30.147,110.531,29.975,111.932,30.181z"/>
<path fill-rule="evenodd" clip-rule="evenodd" fill="#D74119" d="M104.585,14.417c1.89,1.192,2.02,2.78,0.523,4.213
	c-1.956,1.873-3.967,1.217-5.776-0.457C99.614,14.47,99.614,14.47,104.585,14.417z"/>
<path fill-rule="evenodd" clip-rule="evenodd" fill="#E14637" d="M104.585,14.417c-1.908,1.032-4.938,0.496-5.253,3.756
	c-1.531-1.122-1.489-2.909-0.412-3.787C100.55,13.059,102.698,13.144,104.585,14.417z"/>
<path fill-rule="evenodd" clip-rule="evenodd" fill="#F7E7CE" d="M103.771,32.991c0.066,0.809-0.245,1.513-0.953,1.273
	c-1.296-0.44-3.134-0.284-3.358-2.307c-0.105-0.944,0.432-1.473,1.314-1.274C102.119,30.986,103.401,31.503,103.771,32.991z"/>
<path fill-rule="evenodd" clip-rule="evenodd" fill="#D94520" d="M88.53,36.871c-2.643,0.24-4.038-1.09-3.833-2.957
	c0.171-1.57,1.546-3.442,3.5-3.139c1.713,0.266,4.279,0.08,4.376,2.996C92.684,37.084,89.92,36.346,88.53,36.871z"/>
<path fill-rule="evenodd" clip-rule="evenodd" fill="#E2D2B4" d="M74.982,36.85c0.52,1.377-0.237,1.93-1.438,1.475
	c-0.89-0.337-2.638,0.689-2.62-1.119c0.015-1.53,1.221-2.34,2.749-2.587C75.999,34.243,74.361,36.153,74.982,36.85z"/>
<path fill-rule="evenodd" clip-rule="evenodd" fill="#73813A" d="M100.806,24.812c-1.363,0.944-2.382,1.581-3.32,2.321
	c-0.788,0.621-1.552,0.863-2.191-0.032c-0.697-0.976,0.036-1.594,0.808-2.032C97.475,24.29,98.894,23.682,100.806,24.812z"/>
<path fill-rule="evenodd" clip-rule="evenodd" fill="#F7887A" d="M73.701,58.582c-0.173-0.917-0.346-1.836-0.519-2.752
	c0.243-0.026,0.485-0.075,0.728-0.077c1.166-0.006,2.778-0.585,3.134,0.958c0.306,1.327-1.446,1.354-2.246,2.001
	C74.434,58.668,74.067,58.625,73.701,58.582z"/>
<path fill-rule="evenodd" clip-rule="evenodd" fill="#FB9987" d="M91.951,63.13c-1.415-0.043-1.296-0.547-0.518-1.452
	c1.242-1.444,2.921-2.544,3.585-4.453c1.701-1.278,3.133-2.675,2.255-5.092c1.62-0.057,3.713-0.949,3.593,2.046
	C97.894,57.164,94.922,60.147,91.951,63.13z"/>
<path fill-rule="evenodd" clip-rule="evenodd" fill="#501F0D" d="M111.271,43.604l-0.018,0.015c-0.029,0.57-0.058,1.141-0.087,1.711
	c-0.717,3.617-2.017,4.364-5.017,2.609c-1.369-0.801-2.599-0.576-3.923-0.253c-2.655,0.646-5.32,1.209-8.075,1.148
	c-0.533,0.015-1.066,0.03-1.6,0.045c-0.018,0.497-0.035,0.993-0.052,1.49c1.42,1.03,3.106,0.663,4.679,0.894
	c1.359,1.381,3.301,0.33,4.82,1.076c-0.225,0.718-0.867,0.896-1.306,1.289c-3.188,2.887-6.21,5.944-9.272,8.959
	c-0.642,1.125-2.218,1.772-1.747,3.46c1.361,0.031,2.73,0.174,4.082,0.075c5.351-0.391,10.13-1.773,12.193-7.521
	c1.88-3.077,5.127-5.198,6.19-8.846C111.671,47.73,112.784,45.481,111.271,43.604z M97.609,62.922
	c1.242-2.703,3.189-3.894,5.007-5.207C102.182,60.34,100.691,61.954,97.609,62.922z"/>
</svg>
