<svg xmlns="http://www.w3.org/2000/svg" version="1.1" xmlns:xlink="http://www.w3.org/1999/xlink" xmlns:svgjs="http://svgjs.com/svgjs" width="1440" height="560" preserveAspectRatio="none" viewBox="0 0 1440 560"><g mask="url(&quot;#SvgjsMask1005&quot;)" fill="none"><rect width="1440" height="560" x="0" y="0" fill="rgba(232, 249, 253, 1)"></rect><path d="M686.8 -41.71L751.75 -4.21L751.75 70.79L686.8 108.29L621.84 70.79L621.84 -4.21zM751.75 520.79L816.71 558.29L816.71 633.29L751.75 670.79L686.8 633.29L686.8 558.29zM816.7 183.29L881.66 220.79L881.66 295.79L816.7 333.29L751.75 295.79L751.75 220.79zM816.7 408.29L881.66 445.79L881.66 520.79L816.7 558.29L751.75 520.79L751.75 445.79zM1011.57 520.79L1076.52 558.29L1076.52 633.29L1011.57 670.79L946.61 633.29L946.61 558.29zM1076.52 -41.71L1141.47 -4.21L1141.47 70.79L1076.52 108.29L1011.57 70.79L1011.57 -4.21zM1141.47 520.79L1206.43 558.29L1206.43 633.29L1141.47 670.79L1076.52 633.29L1076.52 558.29zM1531.2 520.79L1596.15 558.29L1596.15 633.29L1531.2 670.79L1466.24 633.29L1466.24 558.29z" stroke="rgba(228, 120, 120, 1)" stroke-width="2"></path><path d="M679.3 -41.71 a7.5 7.5 0 1 0 15 0 a7.5 7.5 0 1 0 -15 0zM744.25 -4.21 a7.5 7.5 0 1 0 15 0 a7.5 7.5 0 1 0 -15 0zM744.25 70.79 a7.5 7.5 0 1 0 15 0 a7.5 7.5 0 1 0 -15 0zM679.3 108.29 a7.5 7.5 0 1 0 15 0 a7.5 7.5 0 1 0 -15 0zM614.34 70.79 a7.5 7.5 0 1 0 15 0 a7.5 7.5 0 1 0 -15 0zM614.34 -4.21 a7.5 7.5 0 1 0 15 0 a7.5 7.5 0 1 0 -15 0zM744.25 520.79 a7.5 7.5 0 1 0 15 0 a7.5 7.5 0 1 0 -15 0zM809.21 558.29 a7.5 7.5 0 1 0 15 0 a7.5 7.5 0 1 0 -15 0zM809.21 633.29 a7.5 7.5 0 1 0 15 0 a7.5 7.5 0 1 0 -15 0zM744.25 670.79 a7.5 7.5 0 1 0 15 0 a7.5 7.5 0 1 0 -15 0zM679.3 633.29 a7.5 7.5 0 1 0 15 0 a7.5 7.5 0 1 0 -15 0zM679.3 558.29 a7.5 7.5 0 1 0 15 0 a7.5 7.5 0 1 0 -15 0zM809.2 183.29 a7.5 7.5 0 1 0 15 0 a7.5 7.5 0 1 0 -15 0zM874.16 220.79 a7.5 7.5 0 1 0 15 0 a7.5 7.5 0 1 0 -15 0zM874.16 295.79 a7.5 7.5 0 1 0 15 0 a7.5 7.5 0 1 0 -15 0zM809.2 333.29 a7.5 7.5 0 1 0 15 0 a7.5 7.5 0 1 0 -15 0zM744.25 295.79 a7.5 7.5 0 1 0 15 0 a7.5 7.5 0 1 0 -15 0zM744.25 220.79 a7.5 7.5 0 1 0 15 0 a7.5 7.5 0 1 0 -15 0zM809.2 408.29 a7.5 7.5 0 1 0 15 0 a7.5 7.5 0 1 0 -15 0zM874.16 445.79 a7.5 7.5 0 1 0 15 0 a7.5 7.5 0 1 0 -15 0zM874.16 520.79 a7.5 7.5 0 1 0 15 0 a7.5 7.5 0 1 0 -15 0zM809.2 558.29 a7.5 7.5 0 1 0 15 0 a7.5 7.5 0 1 0 -15 0zM744.25 445.79 a7.5 7.5 0 1 0 15 0 a7.5 7.5 0 1 0 -15 0zM1004.07 520.79 a7.5 7.5 0 1 0 15 0 a7.5 7.5 0 1 0 -15 0zM1069.02 558.29 a7.5 7.5 0 1 0 15 0 a7.5 7.5 0 1 0 -15 0zM1069.02 633.29 a7.5 7.5 0 1 0 15 0 a7.5 7.5 0 1 0 -15 0zM1004.07 670.79 a7.5 7.5 0 1 0 15 0 a7.5 7.5 0 1 0 -15 0zM939.11 633.29 a7.5 7.5 0 1 0 15 0 a7.5 7.5 0 1 0 -15 0zM939.11 558.29 a7.5 7.5 0 1 0 15 0 a7.5 7.5 0 1 0 -15 0zM1069.02 -41.71 a7.5 7.5 0 1 0 15 0 a7.5 7.5 0 1 0 -15 0zM1133.97 -4.21 a7.5 7.5 0 1 0 15 0 a7.5 7.5 0 1 0 -15 0zM1133.97 70.79 a7.5 7.5 0 1 0 15 0 a7.5 7.5 0 1 0 -15 0zM1069.02 108.29 a7.5 7.5 0 1 0 15 0 a7.5 7.5 0 1 0 -15 0zM1004.07 70.79 a7.5 7.5 0 1 0 15 0 a7.5 7.5 0 1 0 -15 0zM1004.07 -4.21 a7.5 7.5 0 1 0 15 0 a7.5 7.5 0 1 0 -15 0zM1133.97 520.79 a7.5 7.5 0 1 0 15 0 a7.5 7.5 0 1 0 -15 0zM1198.93 558.29 a7.5 7.5 0 1 0 15 0 a7.5 7.5 0 1 0 -15 0zM1198.93 633.29 a7.5 7.5 0 1 0 15 0 a7.5 7.5 0 1 0 -15 0zM1133.97 670.79 a7.5 7.5 0 1 0 15 0 a7.5 7.5 0 1 0 -15 0zM1523.7 520.79 a7.5 7.5 0 1 0 15 0 a7.5 7.5 0 1 0 -15 0zM1588.65 558.29 a7.5 7.5 0 1 0 15 0 a7.5 7.5 0 1 0 -15 0zM1588.65 633.29 a7.5 7.5 0 1 0 15 0 a7.5 7.5 0 1 0 -15 0zM1523.7 670.79 a7.5 7.5 0 1 0 15 0 a7.5 7.5 0 1 0 -15 0zM1458.74 633.29 a7.5 7.5 0 1 0 15 0 a7.5 7.5 0 1 0 -15 0zM1458.74 558.29 a7.5 7.5 0 1 0 15 0 a7.5 7.5 0 1 0 -15 0z" fill="rgba(228, 120, 120, 1)"></path><path d="M86.15 374.33L129.46 399.33L129.46 449.33L86.15 474.33L42.85 449.33L42.85 399.33zM129.46 149.33L172.76 174.33L172.76 224.33L129.46 249.33L86.15 224.33L86.15 174.33zM259.36 74.33L302.67 99.33L302.67 149.33L259.36 174.33L216.06 149.33L216.06 99.33zM345.97 74.33L389.27 99.33L389.27 149.33L345.97 174.33L302.67 149.33L302.67 99.33zM519.18 374.33L562.48 399.33L562.48 449.33L519.18 474.33L475.88 449.33L475.88 399.33zM519.18 524.33L562.48 549.33L562.48 599.33L519.18 624.33L475.88 599.33L475.88 549.33zM605.78 74.33L649.09 99.33L649.09 149.33L605.78 174.33L562.48 149.33L562.48 99.33zM562.48 149.33L605.78 174.33L605.78 224.33L562.48 249.33L519.18 224.33L519.18 174.33zM605.78 224.33L649.09 249.33L649.09 299.33L605.78 324.33L562.48 299.33L562.48 249.33zM605.78 374.33L649.09 399.33L649.09 449.33L605.78 474.33L562.48 449.33L562.48 399.33zM562.48 449.33L605.78 474.33L605.78 524.33L562.48 549.33L519.18 524.33L519.18 474.33zM692.39 74.33L735.69 99.33L735.69 149.33L692.39 174.33L649.09 149.33L649.09 99.33zM735.69 -0.67L778.99 24.33L778.99 74.33L735.69 99.33L692.39 74.33L692.39 24.33zM778.99 524.33L822.3 549.33L822.3 599.33L778.99 624.33L735.69 599.33L735.69 549.33zM952.2 374.33L995.51 399.33L995.51 449.33L952.2 474.33L908.9 449.33L908.9 399.33zM908.9 449.33L952.2 474.33L952.2 524.33L908.9 549.33L865.6 524.33L865.6 474.33zM1038.81 74.33L1082.11 99.33L1082.11 149.33L1038.81 174.33L995.51 149.33L995.51 99.33zM1125.41 74.33L1168.71 99.33L1168.71 149.33L1125.41 174.33L1082.11 149.33L1082.11 99.33zM1082.11 149.33L1125.41 174.33L1125.41 224.33L1082.11 249.33L1038.81 224.33L1038.81 174.33zM1168.71 299.33L1212.02 324.33L1212.02 374.33L1168.71 399.33L1125.41 374.33L1125.41 324.33zM1212.02 524.33L1255.32 549.33L1255.32 599.33L1212.02 624.33L1168.71 599.33L1168.71 549.33zM1341.92 449.33L1385.23 474.33L1385.23 524.33L1341.92 549.33L1298.62 524.33L1298.62 474.33zM1428.53 149.33L1471.83 174.33L1471.83 224.33L1428.53 249.33L1385.23 224.33L1385.23 174.33z" stroke="rgba(118, 217, 116, 0.93)" stroke-width="2"></path></g><defs><mask id="SvgjsMask1005"><rect width="1440" height="560" fill="#ffffff"></rect></mask></defs></svg>